<?xml version="1.0" encoding="utf-8"?>
<!-- Generator: Adobe Illustrator 17.0.0, SVG Export Plug-In . SVG Version: 6.00 Build 0)  -->
<!DOCTYPE svg PUBLIC "-//W3C//DTD SVG 1.1//EN" "http://www.w3.org/Graphics/SVG/1.1/DTD/svg11.dtd">
<svg version="1.1" id="car_10_1_" xmlns="http://www.w3.org/2000/svg" xmlns:xlink="http://www.w3.org/1999/xlink" x="0px" y="0px"
	 width="440px" height="680px" viewBox="0 0 440 680" enable-background="new 0 0 440 680" xml:space="preserve">
<g id="shape">
	<g id="shape_31_">
		<g>
			<g>
				<path fill-rule="evenodd" clip-rule="evenodd" fill="#D4D4D4" d="M319.62891,543.5H122.3706
					c-0.4155,0-0.813,0.17291-1.09669,0.47662c-0.28371,0.30365-0.4282,0.71185-0.3999,1.12689l0.0381,0.57721
					c0.6939,9.7226,9.1753,18.87787,18.91019,20.4082c27.03371,4.18835,54.3457,6.3125,81.1777,6.3125
					c26.8311,0,54.14359-2.12415,81.18161-6.31354c9.7305-1.5293,18.21198-10.68457,18.90628-20.40631l0.03812-0.58197
					c0.02728-0.41412-0.11823-0.82129-0.4014-1.12402C320.4404,543.67188,320.04388,543.5,319.62891,543.5z"/>
			</g>
		</g>
		<g>
			<g>
				<path fill="#323A3C" d="M319.63431,541.99982h-0.005H122.3705c-0.8318,0-1.6262,0.3454-2.1936,0.95361
					c-0.56741,0.60815-0.8568,1.4245-0.7992,2.25427l0.0171,0.26288l0.0205,0.31323
					c0.7413,10.38257,9.7894,20.15387,20.1702,21.78607c27.11681,4.2016,54.5063,6.33154,81.4144,6.33154
					s54.29771-2.12994,81.40791-6.33044c10.38739-1.6333,19.43549-11.4046,20.17648-21.7829l0.02042-0.31226l0.00998-0.15411
					c0.01132-0.10571,0.01712-0.21313,0.01712-0.3219C322.63181,543.3429,321.2912,541.99982,319.63431,541.99982z
					 M319.6293,544.99982c-0.01331,0.19147-0.02411,0.38306-0.03741,0.57477c-0.63779,8.93329-8.57538,17.6059-17.64349,19.0318
					c-27.08499,4.19672-54.01669,6.2951-80.9485,6.2951c-26.93169,0-53.86339-2.09839-80.94838-6.2951
					c-9.06821-1.4259-17.00571-10.09851-17.64352-19.0318c-0.0134-0.19171-0.0242-0.3833-0.0375-0.57477H319.6293h0.005H319.6293z"
					/>
			</g>
		</g>
	</g>
</g>
<g id="shape_1_">
	<g id="shape_30_">
		<g>
			<g>
				<path fill-rule="evenodd" clip-rule="evenodd" fill="#D4D4D4" d="M300.92871,110.78371
					c-26.61823-4.1255-53.50981-6.2173-79.92871-6.2173s-53.311,2.0918-79.93213,6.2178
					c-9.59128,1.50879-17.95017,10.5337-18.63477,20.12109c-9.2349,133.10501-9.2349,268.08398,0.0005,401.19138
					c0.6841,9.5849,9.04299,18.61029,18.6372,20.11914c26.61819,4.12598,53.5103,6.21777,79.9292,6.21777
					s53.31049-2.0918,79.93259-6.21881c9.59082-1.50781,17.9502-10.5332,18.63382-20.12097
					c9.23538-133.10452,9.23538-268.0835,0-401.1915C318.88278,121.31791,310.52341,112.293,300.92871,110.78371z"/>
			</g>
		</g>
		<g>
			<g>
				<path fill="#323A3C" d="M301.1651,109.30231c-26.7005-4.13831-53.66969-6.236-80.16521-6.236
					c-26.49539,0-53.4646,2.09769-80.15846,6.2349c-10.24713,1.6119-19.17293,11.2539-19.90413,21.49469
					c-9.2406,133.17941-9.2406,268.22861-0.0004,401.40198c0.73161,10.24683,9.6574,19.88879,19.89788,21.49963
					c26.70052,4.13818,53.66972,6.23596,80.16512,6.23596c26.49551,0,53.46471-2.09778,80.15862-6.23499
					c10.24698-1.61182,19.17288-11.25378,19.90408-21.49457c9.24051-133.17941,9.24051-268.22861,0.0004-401.40201
					C320.33139,120.55511,311.40549,110.91311,301.1651,109.30231z M318.07019,531.9903
					c-0.62808,8.79803-8.44308,17.33923-17.37119,18.74359c-26.6669,4.133-53.183,6.19958-79.69911,6.19958
					c-26.51599,0-53.03209-2.06659-79.69899-6.19958c-8.92821-1.40436-16.7431-9.94556-17.3712-18.74359
					c-9.2628-133.5-9.2628-267.48068,0-400.98077c0.6281-8.7979,8.44299-17.3392,17.3712-18.7436
					c26.6669-4.1331,53.183-6.1996,79.69899-6.1996c26.51611,0,53.03221,2.0665,79.69911,6.1996
					c8.9281,1.4044,16.7431,9.9457,17.37119,18.7436C327.33301,264.50961,327.33301,398.4903,318.07019,531.9903z"/>
			</g>
		</g>
	</g>
</g>
<g id="shape_2_">
	<g id="shape_29_">
		<g>
			<g>
				<path fill-rule="evenodd" clip-rule="evenodd" fill="#47EEF6" d="M320.0654,137.8667
					c-0.7002-9.8027-9.24802-19.0337-19.05951-20.57759c-26.64359-4.1294-53.56158-6.22321-80.00589-6.22321
					s-53.3623,2.0938-80.01025,6.2241c-9.80714,1.543-18.35545,10.77399-19.05515,20.5806
					c-6.3155,91.0249-8.336,183.42819-6.0049,274.6655c-1.8628,3.47949-2.8731,7.4082-2.9277,11.42191l0.0004,76.10159
					c0.09129,6.73431,2.81889,13.02438,7.5142,17.39841c0.4707,7.61328,0.9351,14.71002,1.418,21.6748
					c0.7002,9.80267,9.248,19.03418,19.06003,20.57721c26.64307,4.12976,53.56107,6.22357,80.00537,6.22357
					s53.3623-2.09381,80.0098-6.22461c9.80759-1.54297,18.35541-10.7735,19.0556-20.58008
					c0.5098-7.34863,1.00879-14.99323,1.48441-22.7334c4.02438-4.30371,6.36618-10.21002,6.4502-16.3555v-76.10742
					c-0.04489-3.2558-0.71191-6.4209-1.98239-9.414C328.42868,322.62109,326.42679,229.5493,320.0654,137.8667z"/>
			</g>
		</g>
		<g>
			<g>
				<path fill="#323A3C" d="M328.02838,414.14499c2.39493-91.82068,0.38733-184.81888-5.96768-276.41248
					c-0.76309-10.68621-10.06671-20.7393-20.74011-22.41801c-26.7536-4.1467-53.77429-6.2483-80.32059-6.2483
					c-26.5464,0-53.56709,2.1016-80.31171,6.24689c-10.6823,1.68011-19.98599,11.7332-20.7485,22.4114
					c-6.30859,90.9236-8.3345,183.21458-6.0226,274.3443c-1.8541,3.64102-2.8587,7.70792-2.9153,11.83401l-0.0003,0.0274v0.02728
					v76.07471v0.02731l0.0003,0.0274c0.0959,6.99768,2.8326,13.55969,7.5668,18.27106
					c0.4554,7.33984,0.9048,14.19556,1.3705,20.90912c0.7631,10.68634,10.0668,20.73938,20.7403,22.41803
					c26.7534,4.14661,53.77409,6.24829,80.3205,6.24829c26.5463,0,53.56699-2.10168,80.31158-6.24689
					c10.6824-1.68005,19.98602-11.73309,20.7485-22.41132c0.49231-7.09601,0.97711-14.5072,1.44299-22.05682
					c4.0596-4.6109,6.40942-10.76349,6.49652-17.12329l0.0004-0.0274v-0.02737V423.9595v-0.02719l-0.0004-0.0274
					C329.95358,420.5376,329.29099,417.2587,328.02838,414.14499z M326,500.04031c-0.0842,6.14938-2.55899,11.66229-6.401,15.49478
					c-0.47891,7.81982-0.98639,15.63843-1.52872,23.4552c-0.62817,8.79803-8.44308,17.33923-17.37128,18.74341
					c-26.6669,4.13318-53.183,6.19971-79.69901,6.19971c-26.5161,0-53.0322-2.06653-79.6991-6.19971
					c-8.92821-1.40417-16.7431-9.94537-17.3713-18.74341c-0.5195-7.48981-1.0056-14.9812-1.467-22.474
					c-4.4466-3.83459-7.3693-9.78488-7.461-16.4841v-76.07471c0.055-4.01199,1.1394-7.74698,2.9413-10.9324
					c-2.36-91.69128-0.3653-183.46648,5.9867-275.01569c0.6282-8.7979,8.44309-17.3392,17.3713-18.74349
					c26.6669-4.1331,53.183-6.1997,79.6991-6.1997c26.51601,0,53.0321,2.0666,79.69901,6.1997
					c8.92819,1.4043,16.7431,9.94559,17.37128,18.74349c6.39551,92.1763,8.37292,184.58151,5.93671,276.89941
					c1.2226,2.74268,1.94861,5.80429,1.99301,9.05069V500.04031z"/>
			</g>
		</g>
	</g>
</g>
<g id="shape_3_">
	<g>
		<path fill-rule="evenodd" clip-rule="evenodd" fill="#2CB0C7" d="M323.99991,262.04861
			c-0.19882-7.53131-0.4256-15.06212-0.68323-22.59212c-1.31619-3.3913-4.39319-6.25819-7.98309-7.0206
			C252.7079,219,189.29201,219,126.6663,232.4359c-3.5916,0.7628-6.6701,3.632-7.9852,7.02551
			c-0.2581,7.54259-0.4821,15.086-0.6811,22.62999v178.90851h-2.9983v59.0322c0.0916,6.6994,3.0142,12.64972,7.4608,16.48431
			c0.4614,7.49255,0.9475,14.98407,1.4672,22.47388c0.628,8.7981,8.44299,17.33923,17.3712,18.74353
			c53.3338,8.26617,106.06419,8.26617,159.3981,0c8.92819-1.4043,16.7431-9.94543,17.37119-18.74353
			c0.5423-7.81677,1.05002-15.63531,1.52881-23.4552c3.84201-3.83249,6.3168-9.3454,6.401-15.49478v-59.04041h-2.00009V262.04861z
			 M290.99991,455.53711c0,3.3031-2.68011,6.2431-5.98831,6.5351c-43.26039,3.7468-86.763,3.7468-130.02332,0
			c-3.30823-0.29199-5.98828-3.23199-5.98828-6.5351v-159.7962c0.00012-3.30261,2.67407-6.4856,5.97656-7.05231
			c43.18733-7.45639,86.85934-7.45639,130.04672,0c3.30252,0.56671,5.97641,3.74969,5.97662,7.05231V455.53711z"/>
	</g>
</g>
<g id="shape_4_">
	<g>
		<path fill-rule="evenodd" clip-rule="evenodd" fill="#2CB0C7" d="M123.9297,138.0094
			c-2.81641,40.59111-4.7718,81.22681-5.87521,121.8797c5.03091,0.2536,8.9636-3.854,8.9636-15.76379
			c0-30.8744,0.96381-92.578,1.9985-109.28639c0.5435-8.77721,6.858-13.30951,12.73071-15.63792
			c-0.14893,0.02291-0.29749,0.04181-0.44641,0.06491C132.3727,120.6703,124.5577,129.2115,123.9297,138.0094z"/>
	</g>
	<g>
		<path fill-rule="evenodd" clip-rule="evenodd" fill="#2CB0C7" d="M300.69901,119.26591
			c-0.43512-0.0674-0.86932-0.1233-1.3042-0.1896c6.10538,2.2141,13.03439,6.7371,13.60519,15.92349
			c1.03531,16.6647,2,78.2065,2,109.0002c0,11.8573,3.92139,15.96121,8.94308,15.72421
			c-1.104-40.59792-3.0603-81.17851-5.87289-121.71481C317.44211,129.2115,309.6272,120.6703,300.69901,119.26591z"/>
	</g>
</g>
<g id="shape_5_">
	<g>
		<g>
			<path fill-rule="evenodd" clip-rule="evenodd" fill="#2CB0C7" d="M116.7186,238.4351
				c-2.0106,58.17769-2.2734,116.40059-0.7757,174.58989c-1.8019,3.18552-2.8863,6.9205-2.9412,10.93262v76.07449
				c0.0916,6.6994,3.0142,12.64972,7.4608,16.48431c0.4614,7.49255,0.9475,14.98407,1.4672,22.47388
				c0.1178,1.65039,2.48859,3.29181,3.0721,4.87872C126.5,524.99463,143,467.19189,143,459.22849v-164.1673
				c0-9.67657-5.70399-24.0246-10.0658-37.03778C130.1075,249.59021,122.184,242.4389,116.7186,238.4351z"/>
		</g>
		<g>
			<path fill-rule="evenodd" clip-rule="evenodd" fill="#2CB0C7" d="M325.25018,237.62981
				C319.52908,241.4267,311.00369,248.9888,308,258c-4.3334,13-10,27.33331-10,37v163.99991c0,8.3334,18,71.33328,18,86.99997
				c0,0.03345,0.00519,0.06024,0.00549,0.09344c1.14871-2.25244,3.89059-4.66473,4.0647-7.10303
				c0.5423-7.81677,1.05002-15.63531,1.52881-23.4552c3.84201-3.83249,6.3168-9.3454,6.401-15.49478V423.9595
				c-0.04449-3.2464-0.77042-6.30801-1.99301-9.05069C327.5661,355.82391,327.30801,296.7034,325.25018,237.62981z"/>
		</g>
	</g>
	<g>
		<g>
			<path fill="#323A3C" d="M125.6377,548.49609l-1.57422-4.28223c-0.19287-0.52441-0.74023-1.17188-1.26953-1.79785
				c-0.87109-1.03125-1.77197-2.09668-1.86182-3.35449c-0.49023-7.07129-0.9624-14.29395-1.44238-22.06836
				c-4.67383-4.19629-7.39795-10.34766-7.48828-16.94727v-76.08789c0.0542-3.92969,1.06787-7.78516,2.93457-11.18066
				c-1.48145-57.79492-1.21826-116.46387,0.7832-174.37695l0.06543-1.88916l1.5249,1.11719
				c4.87256,3.56934,13.50488,10.92432,16.57275,20.07715c0.77148,2.30176,1.58496,4.64551,2.40137,6.99756
				C140.07715,275.63086,144,286.93018,144,295.06104v164.16748c0,3.63867-3.23145,16.92969-6.97363,32.31934
				c-4.77979,19.66016-10.19775,41.94434-11.02734,52.40039L125.6377,548.49609z M117.65234,240.39307
				c-1.94336,57.34131-2.18213,115.40088-0.70996,172.60693l0.00732,0.27637l-0.13623,0.24121
				c-1.78906,3.16309-2.76172,6.77832-2.81201,10.4541v76.06055c0.08447,6.16309,2.67773,11.90039,7.11426,15.72754l0.31885,0.27441
				l0.02588,0.4209c0.48828,7.92773,0.96826,15.27637,1.4668,22.46582c0.04248,0.59375,0.73389,1.42285,1.3584,2.16113
				c1.41113-11.39941,6.37598-31.82129,10.79736-50.00684C138.64014,476.44531,142,462.62695,142,459.22852V295.06104
				c0-7.79346-3.86621-18.93115-7.60547-29.70215c-0.81885-2.35889-1.63477-4.70898-2.40869-7.01758
				C129.38672,250.58691,122.43262,244.11426,117.65234,240.39307z"/>
		</g>
		<g>
			<path fill="#323A3C" d="M315.12402,550.02637L315,546c0-8.94043-6.13672-34.31543-11.06836-54.7041
				C300.21191,475.91602,297,462.63379,297,459V295c0-8.12109,3.89648-19.40723,7.66406-30.32227
				c0.81152-2.35107,1.62012-4.69336,2.3877-6.99414c2.89551-8.68701,11.01367-16.48535,17.64551-20.88672l1.49023-0.98926
				l0.06152,1.7876c2.05078,58.86035,2.30762,118.45068,0.76367,177.11572c1.27441,2.93262,1.94336,6.03809,1.9873,9.23535v76.09375
				c-0.08203,6.00879-2.41895,11.78613-6.42578,15.92969c-0.48242,7.85742-0.98828,15.62402-1.50586,23.08984
				c-0.13184,1.84766-1.37695,3.5127-2.58008,5.12305c-0.62402,0.83496-1.21387,1.62402-1.5918,2.36523L315.12402,550.02637z
				 M324.31348,239.49268c-6.03027,4.33643-12.83984,11.24951-15.36523,18.82373c-0.76855,2.30713-1.5791,4.65625-2.39355,7.01416
				C302.84082,276.08936,299,287.21436,299,295v164c0,3.39551,3.33984,17.20508,6.87598,31.82617
				c4.72559,19.53906,10.02246,41.44238,10.97363,52.20801c0.0127-0.0166,0.02441-0.0332,0.03711-0.04883
				c1.03027-1.37988,2.09668-2.80566,2.18652-4.06641c0.52539-7.57715,1.03906-15.46582,1.52734-23.44531l0.02344-0.37891
				l0.26855-0.26758c3.80469-3.79492,6.03125-9.18945,6.10742-14.80078v-76.06641c-0.04102-2.98633-0.68262-5.89941-1.90625-8.64355
				l-0.09277-0.20703l0.00586-0.22656C326.54102,356.79004,326.30762,297.79541,324.31348,239.49268z"/>
		</g>
	</g>
</g>
<g>
	<path fill="#323A3C" d="M315.02246,226.68604c-0.28711,0-0.56055-0.04102-0.81836-0.12891
		C285.9834,219.65918,253.55176,216,220.5,216c-32.8374,0-65.08789,3.61523-93.26465,10.4541
		c-2.55029,0.44043-7.80762-4.57617-9.94824-6.75293l1.42578-1.40234c3.39648,3.45215,7.19824,6.37109,8.11865,6.19775
		C155.09229,217.63428,187.50586,214,220.5,214c33.20898,0,65.80566,3.6792,94.26465,10.63965
		c1.39551,0.46875,5.47656-2.88916,8.48535-6.30127l1.5,1.32324C323.21582,221.40088,318.2832,226.68555,315.02246,226.68604z"/>
</g>
<g>
	<path fill="#323A3C" d="M295,560.41699h-2v-30.45508c0-1.3418-0.51953-2.5918-1.46191-3.52051
		c-0.93164-0.91797-2.16309-1.40039-3.48242-1.39258c-44.49414,0.64648-89.61621,0.64648-134.11133,0
		c-1.31689,0.00781-2.55127,0.47461-3.48291,1.39258C149.51904,527.37012,149,528.62012,149,529.96191v30.02441h-2v-30.02441
		c0-1.88086,0.73096-3.6377,2.05811-4.94531c1.31543-1.2959,3.07617-1.96289,4.91553-1.96777
		c44.47607,0.64746,89.5791,0.64746,134.05273,0c1.84277,0.00586,3.59961,0.67188,4.91602,1.96777
		c1.32715,1.30762,2.05762,3.06445,2.05762,4.94531V560.41699z"/>
</g>
<g id="shape_8_">
	<g>
		<g>
			<path fill-rule="evenodd" clip-rule="evenodd" fill="#323A3C" d="M224,530.99988h-6c-0.5524,0-1,0.44763-1,1l1,7
				c0,0.55231,0.4476,1,1,1h4c0.5522,0,1-0.44769,1-1l1-7C225,531.44751,224.5522,530.99988,224,530.99988z"/>
		</g>
	</g>
	<g>
		<g>
			<path fill="#323A3C" d="M223,541h-4c-1.0752,0-1.95459-0.85254-1.99854-1.91699L216,532c0-1.10254,0.89697-2,2-2h6
				c1.10254,0,2,0.89746,2,2l-0.00977,0.1416l-0.99219,6.94141C224.95508,540.14746,224.0752,541,223,541z M223,539v1l0.00098-1H223
				z M218.01025,532L219,539h3.99902l0.01074-0.1416L223.99023,532H218.01025z"/>
		</g>
	</g>
</g>
<g id="shape_9_">
	<g>
		<ellipse fill-rule="evenodd" clip-rule="evenodd" fill="#4C5B5F" cx="221" cy="536.49988" rx="2" ry="1.5"/>
	</g>
</g>
<g id="shape_10_">
	<g id="shape_21_">
		<g>
			<g>
				<path fill-rule="evenodd" clip-rule="evenodd" fill="#323A3C" d="M300.2207,236.0713
					c-25.96582-5.356-52.61911-8.07181-79.22121-8.07181c-26.60159,0-53.2549,2.71581-79.2202,8.07181
					c-1.19531,0.2466-2.22119,0.9624-2.8887,2.0146c-0.72949,1.149-0.9594,2.59959-0.63229,3.9751l8.72412,37.08258
					c0.52197,2.19333,2.37988,3.84763,4.32227,3.84763c0.22363,0,0.44824-0.022,0.66797-0.06491
					c22.63774-4.46729,45.86134-6.73199,69.02684-6.73199s46.39009,2.2652,69.03859,6.73441
					c0.21481,0.04099,0.4346,0.0625,0.65622,0.0625c1.97369,0,3.793-1.6221,4.3262-3.8623l8.71777-37.0542
					c0.3291-1.38721,0.09961-2.84131-0.62888-3.9873C302.4404,237.03371,301.41501,236.3174,300.2207,236.0713z"/>
			</g>
		</g>
		<g>
			<g>
				<path fill="#323A3C" d="M300.62381,234.1124c-26.09833-5.38329-52.88811-8.1129-79.62421-8.1129
					s-53.5256,2.72961-79.62424,8.1129c-1.72887,0.35611-3.21117,1.3867-4.17307,2.9015c-1.0173,1.6021-1.34131,3.612-0.8889,5.5145
					l3.02699,12.8663l5.69403,24.2021c0.74451,3.12979,3.38062,5.3945,6.27039,5.3945c0.35315,0,0.70764-0.03461,1.05353-0.10269
					c22.51317-4.44211,45.60696-6.6944,68.64127-6.6944c23.0345,0,46.1286,2.25238,68.64059,6.6944
					c0.3475,0.06839,0.70129,0.10269,1.05399,0.10269c2.89001,0,5.52722-2.2688,6.2706-5.39471l3.22781-13.71979l5.4931-23.3483
					c0.45169-1.8992,0.12851-3.9126-0.88879-5.5146C303.8356,235.4994,302.35339,234.4687,300.62381,234.1124z M301.79208,241.6124
					l-5.49319,23.34842l-3.22549,13.7103c-0.3454,1.4523-1.48099,2.32019-2.37921,2.32019c-0.09418,0-0.18869-0.00922-0.2796-0.0271
					c-22.76709-4.49231-46.12169-6.76999-69.41498-6.76999c-23.2934,0-46.6479,2.27768-69.41409,6.76978
					c-0.09204,0.0181-0.1864,0.02731-0.2807,0.02731c-0.89813,0-2.03357-0.86789-2.37671-2.31061l-5.69403-24.202l-3.02917-12.8756
					c-0.20398-0.858-0.06763-1.74921,0.37415-2.44501c0.26587-0.41869,0.75977-0.95419,1.60437-1.12819
					c25.8335-5.3286,52.35098-8.03041,78.81619-8.03041s52.9827,2.70181,78.81689,8.0305
					c0.8439,0.1739,1.33789,0.7095,1.6037,1.1282C301.862,239.8539,301.99829,240.7451,301.79208,241.6124z"/>
			</g>
		</g>
	</g>
</g>
<g id="window">
	<g>
		<path fill-rule="evenodd" clip-rule="evenodd" fill="#4C5B5F" d="M206.4144,254.28981l-1.6935,3.43559
			c-1.7744,3.59991-6.2205,6.4115-10.16161,6.74811l-39.24606,3.35168c-2.97565,0.254-6.68579-0.82651-9.58435-2.74271
			l3.19916,13.59821c0.34326,1.44272,1.47864,2.31061,2.37677,2.31061c0.0943,0,0.18872-0.00922,0.2807-0.02731
			c17.9903-3.54968,36.34819-5.7106,54.75279-6.46359c-0.3877-0.69669-0.5222-1.54169-0.30101-2.4444l0.23601-0.96231
			c0.4962-2.02448,2.63831-3.57098,4.8131-3.57098h20.67351c2.1749,0,4.317,1.54651,4.8132,3.57098l0.2359,0.96231
			c0.2251,0.91849,0.08029,1.7764-0.32361,2.47961c18.1283,0.78329,36.2068,2.93179,53.92918,6.42868
			c0.09091,0.01779,0.18542,0.02701,0.2796,0.02701c0.89822,0,2.03372-0.86789,2.37921-2.32031l3.22549-13.71008l0.16742-0.7113
			C266.73599,255.9451,236.5276,252.6252,206.4144,254.28981z"/>
	</g>
</g>
<g id="wheel">
	<g id="wheel_3_">
		<g>
			<g>
				<path fill="#323A3C" d="M175.8562,249.18961c-0.2648,0-0.53059,0.0027-0.79761,0.0081
					c-12.642,0.254-22.92474,6.4702-22.96729,13.88438c-0.0415,7.2572,9.74469,12.97211,22.01599,12.97211
					c0.2648,0,0.53059-0.00269,0.79761-0.008c12.642-0.25409,22.9249-6.47031,22.96729-13.8844
					C197.9136,254.90451,188.1274,249.18961,175.8562,249.18961z M174.80499,271.04709
					c-0.2334,0.0047-0.46609,0.00711-0.69769,0.00711c-6.4557,0-12.5305-1.91431-15.47626-4.87689
					c-1.02747-1.03342-1.54559-2.06522-1.53986-3.06659c0.01996-3.48691,7.06851-8.69312,18.06731-8.91402
					c0.23351-0.00459,0.46611-0.007,0.69771-0.007c6.4556,0,12.5303,1.91422,15.4762,4.87689
					c1.0276,1.03351,1.54561,2.06522,1.54001,3.06662C192.8524,265.62,185.804,270.82599,174.80499,271.04709z"/>
			</g>
		</g>
	</g>
</g>
<g id="wheel_1_">
	<g>
		<path fill-rule="evenodd" clip-rule="evenodd" fill="#323A3C" d="M183.23309,262.40631
			c-0.1613-2.72391-3.98659-4.61902-8.54369-4.23309c-4.55711,0.38608-8.12051,2.9072-7.95911,5.6312
			c0.1429,2.4108,3.15759,4.16919,7.008,4.27448c0.9216,2.51102,1.08371,5.11932-0.2411,6.1459
			c-1.79399,1.38989,10.14491-1.20868,8.90771-1.93369c-0.8643-0.50671-2.4792-3.0762-3.0182-5.28052
			C181.7849,265.94781,183.3409,264.224,183.23309,262.40631z"/>
	</g>
</g>
<g id="shape_11_">
	<g>
		<path fill-rule="evenodd" clip-rule="evenodd" fill="#323A3C" d="M130.9247,252.6787
			c-2.1028-4.8266-3.92979-7.67879-3.92979-6.02429v130.82716c0,4.83475,2.18159,5.94733,4.9904,4.99304
			c2.8087-0.95422,11.97685-3.99432,11.97685-3.99432v-85.7468c0-1.17609-0.97522-5.36829-2.24304-8.27829L130.9247,252.6787z"/>
	</g>
	<g>
		<path fill-rule="evenodd" clip-rule="evenodd" fill="#323A3C" d="M126.9949,400.44931v73.89618
			c0,1.65442,1.827,0.16412,3.92979-3.09479l10.79442-16.72949c1.26782-1.9649,2.24304-4.4299,2.24304-5.60611v-57.1806
			C134.4035,394.34219,126.9949,396.13589,126.9949,400.44931z"/>
	</g>
	<g>
		<path fill-rule="evenodd" clip-rule="evenodd" fill="#323A3C" d="M298,392.2728v57.26111c0,1.1778,0.9772,3.6463,2.24728,5.61389
			l10.81531,16.75311C313.1694,475.1644,315,476.6568,315,474.99991v-74C315,396.6803,307.57709,394.884,298,392.2728z"/>
	</g>
	<g>
		<path fill-rule="evenodd" clip-rule="evenodd" fill="#323A3C" d="M310.06259,253.0327l-9.81531,28.81139
			C298.9772,284.75809,298,291.9549,298,293.1326v85.86734c0,0,9.18579,3.04425,12,3.99997c2.81409,0.9556,5-0.15842,5-4.99997V247
			C315,245.343,312.1694,248.19931,310.06259,253.0327z"/>
	</g>
</g>
<g id="shape_12_">
	<g id="shape_19_">
		<g>
			<g>
				<path fill-rule="evenodd" clip-rule="evenodd" fill="#323A3C" d="M285.64749,480.6875
					c-0.2149-2.0332-2.17868-3.6875-4.37799-3.6875l-0.1181,0.00201c-19.95612,0.53998-40.1944,0.81439-60.1514,0.81439
					c-19.9575,0-40.19479-0.27441-60.1499-0.81439L160.73,477c-2.19923,0-4.1631,1.6543-4.37746,3.68851l-3.26563,31.0791
					c-0.11768,1.12198,0.20361,2.18552,0.90576,2.99509c0.70459,0.81152,1.71533,1.27539,2.84473,1.30762
					C178.1201,516.6875,199.7075,517,221,517c21.29201,0,42.87988-0.3125,64.1611-0.92969
					c1.1319-0.03223,2.14261-0.49713,2.84378-1.30573c0.70413-0.80762,1.02643-1.87201,0.9082-2.99698L285.64749,480.6875z"/>
			</g>
		</g>
		<g>
			<g>
				<path fill="#323A3C" d="M287.6362,480.47949C287.31329,477.4068,284.51678,475,281.2699,475h-0.02881l-0.02899,0.0004
					l-0.06519,0.00101l-0.02533,0.00031l-0.02518,0.00058c-19.93692,0.54041-40.15631,0.8143-60.09651,0.8143
					c-19.94029,0-40.15939-0.2739-60.09589-0.8143l-0.02551-0.00058l-0.02559-0.0004l-0.06561-0.00101L160.7587,475H160.73
					c-3.24696,0-6.04329,2.4068-6.36623,5.47931l-3.26575,31.0788c-0.17627,1.67999,0.31482,3.2829,1.38293,4.51422
					c1.07678,1.23956,2.60272,1.94836,4.29846,1.99768C178.0822,518.68701,199.6889,519,220.99989,519
					s42.91789-0.31299,64.22029-0.92999c1.6965-0.04932,3.2225-0.75842,4.29761-1.99652
					c1.06909-1.23126,1.5607-2.8349,1.38409-4.51547L287.6362,480.47949z M286.49741,513.45099
					c-0.23581,0.27161-0.6687,0.59961-1.39301,0.62061C263.8407,514.68762,242.2729,515,220.99989,515
					s-42.84059-0.31238-64.10426-0.92841c-0.72437-0.021-1.15741-0.349-1.39319-0.62048
					c-0.23645-0.27252-0.50244-0.74969-0.42633-1.47501l3.26575-31.0787C158.44812,479.88669,159.56403,479,160.73,479
					l0.0656,0.00089c19.97081,0.54123,40.22641,0.8157,60.2043,0.8157c19.9781,0,40.23381-0.27448,60.20482-0.8157L281.2699,479
					c1.16599,0,2.28201,0.88669,2.38821,1.89749l3.26569,31.07861C287,512.70142,286.73401,513.17859,286.49741,513.45099z"/>
			</g>
		</g>
	</g>
</g>
<g id="shape_13_">
	<g>
		<path fill-rule="evenodd" clip-rule="evenodd" fill="#4C5B5F" d="M156.9483,494.15991l-1.87213,17.81619
			c-0.07617,0.72531,0.18982,1.20242,0.42633,1.47501c0.23578,0.27136,0.66876,0.59949,1.39319,0.62061
			C178.15919,514.68762,199.72701,515,220.99989,515c21.27301,0,42.8409-0.31238,64.10451-0.92828
			c0.7243-0.02112,1.15729-0.34924,1.39301-0.62073c0.2366-0.27246,0.50259-0.74957,0.42639-1.47488l-1.8721-17.81619
			C242.3576,495.26321,199.6424,495.26321,156.9483,494.15991z"/>
	</g>
</g>
<g>
	<rect x="235" y="535" fill="#323A3C" width="2" height="11"/>
</g>
<g>
	<rect x="238" y="535" fill="#323A3C" width="2" height="11"/>
</g>
<g>
	<rect x="241" y="535" fill="#323A3C" width="2" height="11"/>
</g>
<g>
	<rect x="244" y="535" fill="#323A3C" width="2" height="11"/>
</g>
<g>
	<rect x="247" y="535" fill="#323A3C" width="2" height="11"/>
</g>
<g>
	<rect x="250" y="535" fill="#323A3C" width="2" height="11"/>
</g>
<g>
	<rect x="253" y="535" fill="#323A3C" width="2" height="11"/>
</g>
<g>
	<rect x="256" y="535" fill="#323A3C" width="2" height="11"/>
</g>
<g>
	<rect x="259" y="535" fill="#323A3C" width="2" height="11"/>
</g>
<g>
	<rect x="262" y="535" fill="#323A3C" width="2" height="11"/>
</g>
<g>
	<rect x="265" y="535" fill="#323A3C" width="2" height="11"/>
</g>
<g>
	<rect x="268" y="535" fill="#323A3C" width="2" height="11"/>
</g>
<g>
	<rect x="271" y="535" fill="#323A3C" width="2" height="11"/>
</g>
<g>
	<rect x="274" y="535" fill="#323A3C" width="2" height="11"/>
</g>
<g>
	<rect x="166" y="535" fill="#323A3C" width="2" height="11"/>
</g>
<g>
	<rect x="169" y="535" fill="#323A3C" width="2" height="11"/>
</g>
<g>
	<rect x="172" y="535" fill="#323A3C" width="2" height="11"/>
</g>
<g>
	<rect x="175" y="535" fill="#323A3C" width="2" height="11"/>
</g>
<g>
	<rect x="178" y="535" fill="#323A3C" width="2" height="11"/>
</g>
<g>
	<rect x="181" y="535" fill="#323A3C" width="2" height="11"/>
</g>
<g>
	<rect x="184" y="535" fill="#323A3C" width="2" height="11"/>
</g>
<g>
	<rect x="187" y="535" fill="#323A3C" width="2" height="11"/>
</g>
<g>
	<rect x="190" y="535" fill="#323A3C" width="2" height="11"/>
</g>
<g>
	<rect x="193" y="535" fill="#323A3C" width="2" height="11"/>
</g>
<g>
	<rect x="196" y="535" fill="#323A3C" width="2" height="11"/>
</g>
<g>
	<rect x="199" y="535" fill="#323A3C" width="2" height="11"/>
</g>
<g>
	<rect x="202" y="535" fill="#323A3C" width="2" height="11"/>
</g>
<g>
	<rect x="205" y="535" fill="#323A3C" width="2" height="11"/>
</g>
<g id="mirror_left">
	<g id="mirror_left_1_">
		<g>
			<g>
				<path fill-rule="evenodd" clip-rule="evenodd" fill="#323A3C" d="M124.6992,254.05861l-0.95261-0.8535
					c-0.0957-0.086-0.1729-0.0972-0.23389-0.0972c-0.0088,0-0.0176,0.00049-0.02541,0.00099
					c-6.16309,0.8335-12.2598,2.6152-19.1851,5.60591c-0.6904,0.30029-1.4331,1.28909-1.5273,2.02838
					c-0.3359,2.77051-0.5391,5.7002,0.2344,8.34131c0.1406,0.44629,0.5444,0.7226,0.8374,0.7226l0.0932-0.01221
					c3.4356-1.02728,7.1553-2.11179,10.8741-3.19678c2.78899-0.8129,5.57809-1.6264,8.2446-2.41501
					c0.1016-0.0303,0.2173-0.09811,0.3335-0.19681l1.0444-0.88519l0.5254,1.2641c0.2984,0.7178,0.6553,1.31839,1.0381,1.7637
					V251.8721c-0.2466,0.2876-0.4829,0.6425-0.7021,1.05659L124.6992,254.05861z"/>
			</g>
		</g>
		<g>
			<g>
				<path fill="#323A3C" d="M124.4143,252.4606c-0.2464-0.2207-0.5518-0.3539-0.8906-0.3539c-0.0561,0-0.113,0.0036-0.1708,0.01109
					c-6.3904,0.8649-12.5376,2.69521-19.4498,5.67999c-1.0008,0.43542-1.9803,1.71982-2.1209,2.82501
					c-0.3652,3.01318-0.5397,5.98761,0.2734,8.76181c0.2709,0.8602,1.0593,1.4227,1.791,1.4227
					c0.12959,0,0.25729-0.01761,0.3801-0.05441c6.0105-1.79709,12.8903-3.7702,19.1175-5.6113
					c0.249-0.0744,0.4827-0.2135,0.6944-0.3927c0.7253,1.74442,1.77361,2.93121,2.9614,3.19409v-17.88309
					C126.0035,250.282,125.1061,251.1543,124.4143,252.4606z M125,261.94431l-0.2008-0.46201l-2.0773,1.75769
					c-2.6528,0.78421-5.4232,1.5921-8.1935,2.40002c-3.55009,1.03528-7.2177,2.10498-10.5751,3.1073
					c-0.703-2.46732-0.5053-5.24591-0.1871-7.87222c0.05051-0.3974,0.5659-1.08279,0.9297-1.24118
					c6.7232-2.90302,12.6465-4.65141,18.6008-5.48941l1.6883,1.5119l0.015-0.0284V261.94431z"/>
			</g>
		</g>
	</g>
</g>
<g id="mirror">
	<g>
		<path fill-rule="evenodd" clip-rule="evenodd" fill="#4C5B5F" d="M120.7521,257.0867
			c-4.8418,0.63739-9.4993,1.98621-14.7364,4.18591c-0.7583,0.32068-1.5005,1.2673-1.6069,2.08179
			c-0.2277,1.82739-0.33179,3.63031-0.0274,5.35269c5.5502-1.6582,11.8041-3.45889,17.6185-5.17059c0-1.71741,0-3.43478,0-5.1521
			C121.9998,257.59091,121.442,256.9996,120.7521,257.0867z"/>
	</g>
</g>
</svg>
