<?xml version="1.0" encoding="utf-8"?>
<!-- Generator: Adobe Illustrator 17.0.0, SVG Export Plug-In . SVG Version: 6.00 Build 0)  -->
<!DOCTYPE svg PUBLIC "-//W3C//DTD SVG 1.1//EN" "http://www.w3.org/Graphics/SVG/1.1/DTD/svg11.dtd">
<svg version="1.1" id="car_10_1_" xmlns="http://www.w3.org/2000/svg" xmlns:xlink="http://www.w3.org/1999/xlink" x="0px" y="0px"
	 width="440px" height="680px" viewBox="0 0 440 680" enable-background="new 0 0 440 680" xml:space="preserve">
<g id="shape">
	<g id="shape_31_">
		<g>
			<g>
				<path fill-rule="evenodd" clip-rule="evenodd" fill="#D4D4D4" d="M121.27393,543.97656
					c-0.28369,0.30371-0.42822,0.71191-0.3999,1.12689l0.03809,0.57721c0.69391,9.7226,9.17529,18.87793,18.91022,20.4082
					c27.03406,4.18842,54.34619,6.3125,81.17767,6.3125c26.83197,0,54.14362-2.12408,81.18158-6.31348
					c9.73053-1.5293,18.21204-10.68463,18.90631-20.40631l0.03809-0.58197c0.02734-0.41412-0.11816-0.82135-0.40137-1.12402
					c-0.28424-0.30371-0.68073-0.47559-1.0957-0.47559h-197.2583C121.95514,543.5,121.55762,543.67291,121.27393,543.97656z"/>
			</g>
		</g>
		<g>
			<g>
				<path fill="#323A3C" d="M120.17761,542.95276c-0.56738,0.60785-0.85712,1.42395-0.79993,2.25342l0.01703,0.26312
					l0.02039,0.31311c0.74139,10.38385,9.78961,20.15527,20.17041,21.78766c27.11639,4.2016,54.50586,6.33142,81.41437,6.33142
					c26.90863,0,54.2981-2.12982,81.40784-6.33038c10.38739-1.63342,19.43561-11.40485,20.17657-21.78302l0.02081-0.31879
					l0.00958-0.14832c0.01129-0.10547,0.01703-0.21259,0.01703-0.32111c0-1.65692-1.34064-3-2.9975-3h-0.005H122.37061
					C121.53912,541.99988,120.74493,542.34497,120.17761,542.95276z M319.63422,544.99988h-0.005
					c-0.01318,0.19153-0.02399,0.38312-0.03729,0.57458c-0.63782,8.93353-8.57532,17.60602-17.64362,19.03204
					c-27.0849,4.19666-54.0166,6.29498-80.94843,6.29498c-26.9317,0-53.8634-2.09833-80.9483-6.29498
					c-9.06836-1.42603-17.00586-10.09851-17.64368-19.03204c-0.01331-0.19147-0.02411-0.38306-0.03729-0.57458h197.25861H319.63422z
					"/>
			</g>
		</g>
	</g>
</g>
<g id="shape_1_">
	<g id="shape_30_">
		<g>
			<g>
				<path fill-rule="evenodd" clip-rule="evenodd" fill="#D4D4D4" d="M122.43311,130.90533
					c-9.23486,133.10498-9.23486,268.08392,0.00049,401.19135c0.68414,9.5849,9.04303,18.61029,18.63721,20.11908
					c26.61823,4.12604,53.51031,6.21783,79.9292,6.21783s53.31049-2.0918,79.93262-6.21881
					c9.59076-1.50781,17.9502-10.5332,18.63379-20.12097c9.23541-133.10455,9.23541-268.0835,0-401.19153
					c-0.68359-9.58435-9.04303-18.60925-18.6377-20.11859c-26.61823-4.12549-53.50983-6.21729-79.92871-6.21729
					s-53.31097,2.0918-79.93213,6.21777C131.47662,112.29303,123.11774,121.31793,122.43311,130.90533z"/>
			</g>
		</g>
		<g>
			<g>
				<path fill="#323A3C" d="M120.93732,130.7959c-9.2406,133.17938-9.2406,268.22858-0.00043,401.40198
					c0.73163,10.24683,9.65741,19.88879,19.89789,21.49963c26.7005,4.13818,53.66974,6.23596,80.1651,6.23596
					c26.49554,0,53.46472-2.09778,80.15863-6.23499c10.24701-1.61182,19.17291-11.25378,19.90411-21.49463
					c9.24048-133.17938,9.24048-268.22858,0.00037-401.40198c-0.73157-10.24677-9.65747-19.88879-19.89789-21.49957
					c-26.7005-4.13831-53.66968-6.23602-80.16522-6.23602c-26.49536,0-53.4646,2.09772-80.15845,6.23492
					C130.5943,110.91309,121.66852,120.55511,120.93732,130.7959z M220.99988,106.06628
					c26.51611,0,53.03223,2.06653,79.6991,6.19965c8.9281,1.40436,16.7431,9.94568,17.37122,18.74359
					c9.26282,133.50006,9.26282,267.48077,0,400.98077c-0.62811,8.79797-8.44312,17.33917-17.37122,18.74359
					c-26.66687,4.133-53.18298,6.19958-79.6991,6.19958c-26.51599,0-53.0321-2.06659-79.69897-6.19958
					c-8.92816-1.40442-16.7431-9.94562-17.37122-18.74359c-9.26276-133.5-9.26276-267.48071,0-400.98077
					c0.62811-8.79791,8.44305-17.33923,17.37122-18.74359C167.96777,108.13281,194.48389,106.06628,220.99988,106.06628z"/>
			</g>
		</g>
	</g>
</g>
<g id="shape_2_">
	<g id="shape_29_">
		<g>
			<g>
				<path fill-rule="evenodd" clip-rule="evenodd" fill="#70A2E4" d="M320.06537,137.8667
					c-0.7002-9.80267-9.24799-19.03369-19.05945-20.57758c-26.64362-4.12939-53.56165-6.22321-80.00592-6.22321
					s-53.3623,2.09381-80.01025,6.22406c-9.80713,1.54303-18.35541,10.77405-19.05511,20.58063
					c-6.31549,91.0249-8.336,183.42822-6.00494,274.66547c-1.86279,3.47949-2.87305,7.4082-2.92767,11.42194l0.00043,76.10156
					c0.09125,6.73431,2.81885,13.02441,7.51416,17.39844c0.4707,7.61328,0.93512,14.70996,1.41803,21.6748
					c0.7002,9.80267,9.24799,19.03418,19.06,20.57715c26.64307,4.12982,53.5611,6.22363,80.00537,6.22363
					s53.3623-2.09381,80.00983-6.22461c9.80756-1.54303,18.35535-10.7735,19.05554-20.58008
					c0.50983-7.34863,1.00885-14.99323,1.48444-22.7334c4.02441-4.30371,6.36621-10.21002,6.4502-16.35553v-76.10742
					c-0.04492-3.2558-0.71191-6.4209-1.98242-9.414C328.42871,322.62109,326.42682,229.54932,320.06537,137.8667z"/>
			</g>
		</g>
		<g>
			<g>
				<path fill="#323A3C" d="M322.06067,137.73248c-0.76306-10.68616-10.06665-20.73926-20.74005-22.41797
					c-26.7536-4.14673-53.77429-6.24829-80.32062-6.24829c-26.54639,0-53.56708,2.10156-80.31171,6.24689
					c-10.68225,1.68011-19.98596,11.73322-20.74847,22.41138c-6.30859,90.92365-8.33453,183.2146-6.02258,274.3443
					c-1.85413,3.64099-2.8587,7.70789-2.91534,11.83398l-0.00031,0.0274v0.02728v76.07471v0.02734l0.00031,0.0274
					c0.09595,6.99768,2.83264,13.55969,7.56683,18.27106c0.45538,7.33984,0.90479,14.1955,1.37048,20.90912
					c0.76312,10.68628,10.06683,20.73938,20.7403,22.41797c26.75342,4.14661,53.77411,6.24835,80.3205,6.24835
					c26.54633,0,53.56702-2.10175,80.31158-6.24695c10.68243-1.67999,19.98602-11.73309,20.74854-22.41125
					c0.49225-7.09601,0.97705-14.5072,1.44299-22.05682c4.05957-4.6109,6.40936-10.76349,6.49646-17.12329L330,500.06769v-0.0274
					v-76.08081v-0.02716l-0.00043-0.0274c-0.04596-3.36731-0.70856-6.64624-1.97119-9.75995
					C330.42328,322.32428,328.41571,229.32611,322.06067,137.73248z M326,500.04028
					c-0.08423,6.14941-2.55902,11.66229-6.401,15.49481c-0.47888,7.81976-0.98639,15.63837-1.52869,23.4552
					c-0.62823,8.79797-8.44312,17.33917-17.37134,18.74341c-26.66687,4.13318-53.18298,6.19971-79.69897,6.19971
					c-26.51611,0-53.03223-2.06653-79.6991-6.19971c-8.92816-1.40424-16.7431-9.94543-17.37128-18.74341
					c-0.51953-7.48981-1.00562-14.9812-1.46704-22.474c-4.44659-3.83459-7.36926-9.78491-7.461-16.48413v-76.07471
					c0.05505-4.01196,1.1394-7.74695,2.94135-10.93237c-2.36005-91.69128-0.3653-183.46649,5.98669-275.01569
					c0.62817-8.79791,8.44312-17.33917,17.37128-18.74347c26.66687-4.13312,53.18298-6.19971,79.6991-6.19971
					c26.51599,0,53.0321,2.06659,79.69897,6.19971c8.92822,1.4043,16.7431,9.94556,17.37134,18.74347
					c6.39551,92.17633,8.37286,184.58148,5.93671,276.89941c1.2226,2.74268,1.94855,5.80426,1.99298,9.05066V500.04028z"/>
			</g>
		</g>
	</g>
</g>
<g id="shape_3_">
	<g>
		<path fill-rule="evenodd" clip-rule="evenodd" fill="#5381BE" d="M323.31671,239.45648
			c-1.31622-3.3913-4.39319-6.25818-7.98309-7.02057C252.70789,219,189.29199,219,126.66632,232.43591
			c-3.59161,0.76282-6.6701,3.63202-7.98523,7.02551c-0.25806,7.5426-0.48206,15.086-0.68109,22.63
			c0,59.63617,0,119.27228,0,178.90845h-2.99829c0,19.67743,0,39.3548,0,59.03223
			c0.09161,6.69928,3.01422,12.64966,7.46082,16.48425c0.46149,7.49261,0.94751,14.98413,1.46716,22.47382
			c0.62805,8.7981,8.44305,17.33929,17.37122,18.74359c53.33392,8.26624,106.06421,8.26624,159.39807,0
			c8.92822-1.4043,16.7431-9.9455,17.37122-18.74359c0.5423-7.81671,1.04999-15.63519,1.52881-23.45508
			c3.84198-3.83252,6.31677-9.34552,6.401-15.49481c0-19.6803,0-39.36029,0-59.04041h-2.00012c0-59.65039,0-119.30078,0-178.95129
			C323.80109,254.51727,323.57428,246.98663,323.31671,239.45648z M290.99988,455.53711c0,3.30298-2.68005,6.2431-5.98828,6.53497
			c-43.26038,3.74689-86.76288,3.74689-130.02332,0C151.68005,461.78021,149,458.84009,149,455.53711
			c0-53.26544,0-106.53082,0-159.79633c0.00012-3.30249,2.67407-6.4856,5.97656-7.05219
			c43.18732-7.45642,86.85931-7.45642,130.04675,0c3.30249,0.56659,5.9765,3.74969,5.97656,7.05219
			C290.99988,349.00629,290.99988,402.27167,290.99988,455.53711z"/>
	</g>
</g>
<g id="shape_4_">
	<g>
		<path fill-rule="evenodd" clip-rule="evenodd" fill="#5381BE" d="M123.92969,138.00952
			c-2.81635,40.591-4.77179,81.22656-5.87518,121.87958c5.03088,0.2536,8.96362-3.854,8.96362-15.76379
			c0-30.87439,0.96381-92.578,1.99847-109.28638c0.54352-8.77734,6.85803-13.30951,12.73071-15.63794
			c-0.14893,0.02289-0.29749,0.04193-0.44641,0.06494C132.37274,120.67023,124.55774,129.21149,123.92969,138.00952z"/>
	</g>
	<g>
		<path fill-rule="evenodd" clip-rule="evenodd" fill="#5381BE" d="M315,243.99988c0,11.85742,3.92139,15.9613,8.94312,15.7243
			c-1.104-40.5979-3.0603-81.17847-5.87292-121.71466c-0.62811-8.79803-8.44299-17.33929-17.37122-18.74359
			c-0.43506-0.06744-0.86926-0.12335-1.3042-0.18964c6.10541,2.21411,13.03442,6.73712,13.60522,15.92352
			C314.03528,151.66449,315,213.2063,315,243.99988z"/>
	</g>
</g>
<g id="shape_5_">
	<g>
		<g>
			<path fill-rule="evenodd" clip-rule="evenodd" fill="#5381BE" d="M325.25018,237.62982
				c-5.72107,3.79688-14.24646,11.35901-17.25018,20.37006c-4.33337,13-10,27.33344-10,37v164c0,8.33344,18,71.33331,18,87
				c0,0.03339,0.00519,0.06018,0.00549,0.09338c1.14868-2.25238,3.89063-4.66467,4.0647-7.10309
				c0.5423-7.81671,1.04999-15.63519,1.52881-23.45508c3.84198-3.83252,6.31677-9.34552,6.401-15.49481v-76.08081
				c-0.04443-3.2464-0.77039-6.30786-1.99298-9.05066C327.56622,355.82391,327.30798,296.70343,325.25018,237.62982z"/>
		</g>
		<g>
			<path fill-rule="evenodd" clip-rule="evenodd" fill="#5381BE" d="M113.00171,500.0321
				c0.09161,6.69928,3.01422,12.64966,7.46082,16.48425c0.46149,7.49261,0.94751,14.98413,1.46716,22.47382
				c0.1178,1.65051,2.48865,3.29193,3.0722,4.87878C126.5,524.99457,143,467.19189,143,459.22845V295.06122
				c0-9.67664-5.70398-24.0246-10.0658-37.03784c-2.82666-8.43317-10.75018-15.58459-16.21558-19.58826
				c-2.01062,58.17767-2.27332,116.4007-0.7757,174.58984c-1.80194,3.18542-2.88629,6.92053-2.94122,10.93262V500.0321z"/>
		</g>
	</g>
	<g>
		<g>
			<path fill="#323A3C" d="M315.12402,550.02637L315,546c0-8.94043-6.13672-34.31543-11.06836-54.7041
				C300.21191,475.91602,297,462.63379,297,459V295c0-8.12109,3.89648-19.40723,7.66406-30.32227
				c0.81152-2.35107,1.62012-4.69336,2.3877-6.99414c2.89551-8.68701,11.01367-16.48535,17.64551-20.88672l1.49023-0.98926
				l0.06152,1.7876c2.05078,58.86035,2.30762,118.45068,0.76367,177.11572c1.27441,2.93262,1.94336,6.03809,1.9873,9.23438v76.09473
				c-0.08203,6.00879-2.41895,11.78613-6.42578,15.92969c-0.48242,7.85742-0.98828,15.62402-1.50586,23.08984
				c-0.13184,1.84766-1.37695,3.5127-2.58008,5.12305c-0.62402,0.83496-1.21387,1.62402-1.5918,2.36523L315.12402,550.02637z
				 M324.31348,239.49268c-6.03027,4.33643-12.83984,11.24951-15.36523,18.82373c-0.76855,2.30713-1.5791,4.65625-2.39355,7.01416
				C302.84082,276.08936,299,287.21436,299,295v164c0,3.39551,3.33984,17.20508,6.87598,31.82617
				c4.72559,19.53906,10.02246,41.44238,10.97363,52.20801c0.0127-0.0166,0.02441-0.0332,0.03711-0.04883
				c1.03027-1.37988,2.09668-2.80566,2.18652-4.06641c0.52539-7.57715,1.03906-15.46582,1.52734-23.44531l0.02344-0.37891
				l0.26855-0.26758c3.80469-3.79492,6.03125-9.18945,6.10742-14.80078v-76.06738c-0.04102-2.98633-0.68262-5.89844-1.90625-8.64258
				l-0.09277-0.20703l0.00586-0.22656C326.54102,356.79004,326.30762,297.79541,324.31348,239.49268z"/>
		</g>
		<g>
			<path fill="#323A3C" d="M125.6377,548.49609l-1.57422-4.28223c-0.19287-0.52441-0.74023-1.17188-1.26953-1.79785
				c-0.87109-1.03125-1.77197-2.09668-1.86182-3.35449c-0.49072-7.0791-0.96289-14.30176-1.44238-22.06836
				c-4.67432-4.19629-7.39795-10.34766-7.48779-16.94727v-76.08789c0.05371-3.93066,1.06689-7.78613,2.93408-11.18066
				c-1.48145-57.79492-1.21826-116.46387,0.7832-174.37695l0.06543-1.88916l1.5249,1.11719
				c4.87256,3.56934,13.50488,10.92432,16.57275,20.07715c0.77148,2.30176,1.58496,4.64551,2.40137,6.99756
				C140.07715,275.63086,144,286.93018,144,295.06104v164.16748c0,3.6377-3.23145,16.92871-6.97314,32.31738
				c-4.78027,19.66113-10.19824,41.94531-11.02783,52.40234L125.6377,548.49609z M117.65234,240.39307
				c-1.94336,57.34131-2.18213,115.40088-0.70996,172.60693l0.00732,0.27637l-0.13672,0.24121
				c-1.78906,3.16211-2.76123,6.77734-2.81104,10.4541v76.06055c0.08398,6.16309,2.67676,11.90039,7.11377,15.72754l0.31885,0.27441
				l0.02588,0.4209c0.48779,7.91992,0.96777,15.26855,1.4668,22.46582c0.04248,0.59375,0.73389,1.42285,1.3584,2.16113
				c1.41113-11.40039,6.37646-31.82227,10.79785-50.00879C138.64063,476.44434,142,462.62695,142,459.22852V295.06104
				c0-7.79346-3.86621-18.93115-7.60547-29.70215c-0.81885-2.35889-1.63477-4.70898-2.40869-7.01758
				C129.38672,250.58691,122.43262,244.11426,117.65234,240.39307z"/>
		</g>
	</g>
</g>
<g>
	<path fill="#323A3C" d="M315.02246,226.68604c-0.28711,0-0.56055-0.04102-0.81836-0.12891
		C285.9834,219.65918,253.55176,216,220.5,216c-32.8374,0-65.08789,3.61523-93.26465,10.4541
		c-2.55029,0.44043-7.80762-4.57617-9.94824-6.75293l1.42578-1.40234c3.39648,3.45215,7.19824,6.37109,8.11865,6.19775
		C155.09229,217.63428,187.50586,214,220.5,214c33.20898,0,65.80566,3.6792,94.26465,10.63965
		c1.39551,0.46875,5.47656-2.88916,8.48535-6.30127l1.5,1.32324C323.21582,221.40088,318.2832,226.68555,315.02246,226.68604z"/>
</g>
<g>
	<path fill="#323A3C" d="M295,560.41699h-2v-30.45508c0-1.3418-0.51953-2.5918-1.46191-3.52051
		c-0.93164-0.91797-2.16309-1.40039-3.48242-1.39258c-44.49414,0.64648-89.61621,0.64648-134.11133,0
		c-1.31689,0.00781-2.55127,0.47461-3.48291,1.39258C149.51904,527.37012,149,528.62012,149,529.96191v30.02441h-2v-30.02441
		c0-1.88086,0.73096-3.6377,2.05811-4.94531c1.31543-1.2959,3.07617-1.96289,4.91553-1.96777
		c44.47607,0.64746,89.5791,0.64746,134.05273,0c1.84277,0.00586,3.59961,0.67188,4.91602,1.96777
		c1.32715,1.30762,2.05762,3.06445,2.05762,4.94531V560.41699z"/>
</g>
<g id="shape_8_">
	<g>
		<g>
			<path fill-rule="evenodd" clip-rule="evenodd" fill="#323A3C" d="M218,530.99988c-0.55243,0-1,0.44763-1,1l1,7
				c0,0.55231,0.44757,1,1,1h4c0.55219,0,1-0.44769,1-1l1-7c0-0.55237-0.44781-1-1-1H218z"/>
		</g>
	</g>
	<g>
		<g>
			<path fill="#323A3C" d="M223,541h-4c-1.0752,0-1.95459-0.85254-1.99854-1.91699L216,532c0-1.10254,0.89697-2,2-2h6
				c1.10254,0,2,0.89746,2,2l-0.00977,0.1416l-0.99219,6.94141C224.95508,540.14746,224.0752,541,223,541z M223,539v1l0.00098-1H223
				z M218.01025,532L219,539h3.99902l0.01074-0.1416L223.99023,532H218.01025z"/>
		</g>
	</g>
</g>
<g id="shape_9_">
	<g>
		<ellipse fill-rule="evenodd" clip-rule="evenodd" fill="#4C5B5F" cx="221" cy="536.49988" rx="2" ry="1.5"/>
	</g>
</g>
<g id="shape_10_">
	<g id="shape_21_">
		<g>
			<g>
				<path fill-rule="evenodd" clip-rule="evenodd" fill="#323A3C" d="M138.89063,238.08588
					c-0.72949,1.14905-0.95941,2.59961-0.63232,3.9751l8.72412,37.08264c0.52197,2.1933,2.37988,3.8476,4.32227,3.8476
					c0.22363,0,0.44824-0.02203,0.66797-0.06494c22.63776-4.46729,45.86133-6.73199,69.02686-6.73199
					c23.16547,0,46.39008,2.2652,69.03857,6.73444c0.21478,0.04102,0.43463,0.0625,0.65619,0.0625
					c1.97375,0,3.79303-1.62213,4.32623-3.8623l8.71777-37.0542c0.3291-1.38721,0.09961-2.84131-0.62891-3.9873
					c-0.66901-1.05371-1.6944-1.77002-2.88867-2.01611c-25.96582-5.35596-52.61908-8.07178-79.22119-8.07178
					c-26.60162,0-53.25488,2.71582-79.22021,8.07178C140.58398,236.31793,139.55811,237.03369,138.89063,238.08588z"/>
			</g>
		</g>
		<g>
			<g>
				<path fill="#323A3C" d="M137.20233,237.01392c-1.01733,1.60211-1.34131,3.612-0.88892,5.51447l3.02698,12.86633
					l5.69403,24.20209c0.74451,3.12982,3.38062,5.39447,6.27039,5.39447c0.35315,0,0.70764-0.03455,1.05353-0.10266
					c22.51318-4.44214,45.60693-6.6944,68.64124-6.6944c23.03455,0,46.1286,2.25238,68.64063,6.6944
					c0.34747,0.06836,0.70129,0.10266,1.05402,0.10266c2.88995,0,5.52716-2.2688,6.27057-5.39465l3.22778-13.71979l5.4931-23.34833
					c0.45172-1.89917,0.12854-3.9126-0.88879-5.51459c-0.9613-1.51453-2.44348-2.54523-4.1731-2.90149
					c-26.09827-5.3833-52.88806-8.11292-79.62421-8.11292c-26.73608,0-53.52557,2.72961-79.62421,8.11292
					C139.64655,234.46851,138.16425,235.49908,137.20233,237.01392z M220.99957,229.99951
					c26.46521,0,52.98273,2.70178,78.81689,8.03052c0.84393,0.17389,1.33795,0.70947,1.6037,1.12817
					c0.44183,0.69568,0.57813,1.58691,0.37195,2.45422l-5.49323,23.34839l-3.22546,13.71027
					c-0.3454,1.45233-1.48102,2.32019-2.37921,2.32019c-0.09424,0-0.18872-0.00916-0.2796-0.0271
					c-22.76709-4.49225-46.1217-6.76996-69.41504-6.76996c-23.2934,0-46.64789,2.27771-69.41406,6.76978
					c-0.09204,0.01813-0.1864,0.02728-0.2807,0.02728c-0.89813,0-2.03357-0.86786-2.37671-2.31055l-5.69403-24.20203
					l-3.02917-12.87561c-0.20398-0.85797-0.06763-1.74921,0.37415-2.44501c0.26587-0.4187,0.75977-0.95416,1.60437-1.12817
					C168.01691,232.70129,194.53442,229.99951,220.99957,229.99951z"/>
			</g>
		</g>
	</g>
</g>
<g id="window">
	<g>
		<path fill-rule="evenodd" clip-rule="evenodd" fill="#4C5B5F" d="M290.41461,280.96417
			c0.09088,0.01794,0.18536,0.0271,0.2796,0.0271c0.89819,0,2.03369-0.86786,2.37921-2.32025l3.22559-13.71014l0.1673-0.7113
			c-29.73029-8.30444-59.93872-11.62439-90.05188-9.95978l-1.69354,3.43561c-1.77441,3.59991-6.22046,6.4115-10.16156,6.74811
			l-39.24609,3.35181c-2.97565,0.25391-6.68579-0.8266-9.58435-2.7428l3.19916,13.59821
			c0.34326,1.44269,1.47864,2.31055,2.37677,2.31055c0.0943,0,0.18872-0.00916,0.2807-0.02728
			c17.9903-3.5498,36.34821-5.71057,54.75281-6.46356c-0.3877-0.69666-0.52222-1.54175-0.3009-2.4444l0.2359-0.96234
			c0.49615-2.02448,2.63831-3.57111,4.81311-3.57111h20.67346c2.17493,0,4.31702,1.54663,4.81323,3.57111l0.2359,0.96234
			c0.2251,0.91846,0.08026,1.77625-0.32361,2.47955C254.61359,275.31891,272.6922,277.46729,290.41461,280.96417z"/>
	</g>
</g>
<g id="wheel">
	<g id="wheel_3_">
		<g>
			<g>
				<path fill="#323A3C" d="M175.05859,249.19769c-12.64197,0.25403-22.92474,6.47021-22.96729,13.8844
					c-0.0415,7.2572,9.74469,12.97211,22.01599,12.97211c0.26477,0,0.53058-0.00269,0.79761-0.008
					c12.64197-0.25409,22.92487-6.47028,22.96729-13.8844c0.04138-7.25732-9.74481-12.97223-22.01599-12.97223
					C175.59137,249.18958,175.32562,249.19232,175.05859,249.19769z M192.87238,262.13318
					c-0.01996,3.48682-7.06836,8.69281-18.06738,8.91394c-0.2334,0.0047-0.46606,0.00708-0.69769,0.00708
					c-6.45569,0-12.53052-1.91431-15.47626-4.87689c-1.02747-1.03339-1.54559-2.06519-1.53986-3.06659
					c0.01996-3.48694,7.06854-8.69312,18.06732-8.914c0.23352-0.00464,0.46606-0.00702,0.69769-0.00702
					c6.45563,0,12.53027,1.91418,15.4762,4.87689C192.35999,260.1001,192.87799,261.13177,192.87238,262.13318z"/>
			</g>
		</g>
	</g>
</g>
<g id="wheel_1_">
	<g>
		<path fill-rule="evenodd" clip-rule="evenodd" fill="#323A3C" d="M183.23322,262.40619
			c-0.16144-2.72382-3.98669-4.6189-8.5437-4.23297c-4.55719,0.38611-8.12054,2.90717-7.95923,5.63116
			c0.14301,2.41083,3.15771,4.16913,7.008,4.27441c0.92169,2.51111,1.0838,5.11951-0.24109,6.146
			c-1.79401,1.38989,10.1449-1.20868,8.90771-1.93372c-0.86432-0.50665-2.47919-3.07617-3.01819-5.28046
			C181.78497,265.94763,183.34088,264.22388,183.23322,262.40619z"/>
	</g>
</g>
<g id="shape_11_">
	<g>
		<path fill-rule="evenodd" clip-rule="evenodd" fill="#323A3C" d="M126.99493,474.34546c0,1.65442,1.82697,0.16412,3.92981-3.09479
			l10.79437-16.72961c1.26782-1.96478,2.24304-4.42987,2.24304-5.60596v-57.18073
			c-9.55865,2.60779-16.96722,4.40149-16.96722,8.7149V474.34546z"/>
	</g>
	<g>
		<path fill-rule="evenodd" clip-rule="evenodd" fill="#323A3C" d="M126.99493,246.65442v130.82715
			c0,4.83472,2.18158,5.9472,4.99048,4.99292c2.80872-0.95422,11.97675-3.9942,11.97675-3.9942v-85.74677
			c0-1.17615-0.97522-5.36835-2.24304-8.2782l-10.79437-31.77673C128.8219,247.85211,126.99493,244.99988,126.99493,246.65442z"/>
	</g>
	<g>
		<path fill-rule="evenodd" clip-rule="evenodd" fill="#323A3C" d="M315,474.99988v-74c0-4.31952-7.42297-6.11591-17-8.72699
			v57.26099c0,1.1778,0.97717,3.6463,2.24731,5.61389l10.81531,16.75311C313.16937,475.16437,315,476.6568,315,474.99988z"/>
	</g>
	<g>
		<path fill-rule="evenodd" clip-rule="evenodd" fill="#323A3C" d="M315,377.99994V246.99988
			c0-1.65686-2.83063,1.1994-4.93738,6.03284l-9.81531,28.8114C298.97717,284.75812,298,291.95477,298,293.13263v85.86731
			c0,0,9.18579,3.04425,12,3.99994C312.81409,383.95538,315,382.84137,315,377.99994z"/>
	</g>
</g>
<g id="shape_12_">
	<g id="shape_19_">
		<g>
			<g>
				<path fill-rule="evenodd" clip-rule="evenodd" fill="#323A3C" d="M160.72998,477c-2.19922,0-4.16309,1.6543-4.37744,3.68848
					l-3.26563,31.0791c-0.11768,1.12201,0.20361,2.18549,0.90576,2.99512c0.70459,0.81146,1.71533,1.27539,2.84473,1.30762
					C178.12012,516.6875,199.70752,517,221,517c21.29199,0,42.87988-0.3125,64.16107-0.92969
					c1.13196-0.03223,2.14264-0.49713,2.84381-1.30573c0.7041-0.80762,1.02643-1.87201,0.9082-2.99701l-3.26556-31.08008
					c-0.2149-2.0332-2.17871-3.6875-4.37805-3.6875l-0.1181,0.00201c-19.95605,0.53998-40.1944,0.81439-60.15137,0.81439
					c-19.95752,0-40.19482-0.27441-60.1499-0.81439L160.72998,477z"/>
			</g>
		</g>
		<g>
			<g>
				<path fill="#323A3C" d="M160.87848,475.00171l-0.02557-0.00043l-0.06561-0.00098L160.75873,475h-0.02875
					c-3.24695,0-6.04327,2.4068-6.36621,5.47931l-3.26575,31.0788c-0.17627,1.67999,0.31482,3.2829,1.38293,4.51416
					c1.07678,1.23962,2.60272,1.94843,4.29846,1.99774C178.08221,518.68701,199.6889,519,220.99988,519
					c21.31104,0,42.91791-0.31299,64.22034-0.92999c1.69647-0.04932,3.22247-0.75842,4.29761-1.99652
					c1.06909-1.23132,1.56067-2.8349,1.38409-4.5155l-3.26575-31.07849C287.31329,477.4068,284.51678,475,281.2699,475h-0.02881
					l-0.02899,0.00037l-0.06519,0.00104l-0.02533,0.00031l-0.02521,0.00055c-19.93689,0.54041-40.15625,0.81433-60.0965,0.81433
					c-19.94031,0-40.15936-0.27393-60.09589-0.81433L160.87848,475.00171z M281.20471,479.00085L281.2699,479
					c1.16602,0,2.28198,0.88666,2.38818,1.89746l3.26569,31.07861c0.07623,0.72528-0.18976,1.20251-0.42639,1.47491
					c-0.23578,0.27161-0.6687,0.59961-1.39301,0.62061C263.8407,514.68756,242.27289,515,220.99988,515
					c-21.27295,0-42.84058-0.31244-64.10425-0.92841c-0.72437-0.021-1.15741-0.349-1.39319-0.62048
					c-0.23645-0.27252-0.50244-0.74976-0.42633-1.47504l3.26575-31.07867c0.10626-1.01074,1.22217-1.8974,2.38812-1.8974
					l0.06561,0.00085c19.97083,0.54126,40.22638,0.81573,60.20428,0.81573
					C240.97803,479.81659,261.2337,479.54211,281.20471,479.00085z"/>
			</g>
		</g>
	</g>
</g>
<g id="shape_13_">
	<g>
		<path fill-rule="evenodd" clip-rule="evenodd" fill="#4C5B5F" d="M155.07617,511.97607
			c-0.07617,0.72528,0.18982,1.20239,0.42633,1.47504c0.23578,0.27136,0.66876,0.59949,1.39319,0.62054
			c21.26349,0.61591,42.8313,0.92822,64.10419,0.92822c21.27301,0,42.84094-0.31232,64.10449-0.92822
			c0.7243-0.02106,1.15735-0.34918,1.39301-0.62067c0.23663-0.27252,0.50262-0.74963,0.42639-1.47491l-1.87207-17.81616
			c-42.69409,1.10315-85.4093,1.10315-128.10339,0L155.07617,511.97607z"/>
	</g>
</g>
<g>
	<rect x="235" y="535" fill="#323A3C" width="2" height="11"/>
</g>
<g>
	<rect x="238" y="535" fill="#323A3C" width="2" height="11"/>
</g>
<g>
	<rect x="241" y="535" fill="#323A3C" width="2" height="11"/>
</g>
<g>
	<rect x="244" y="535" fill="#323A3C" width="2" height="11"/>
</g>
<g>
	<rect x="247" y="535" fill="#323A3C" width="2" height="11"/>
</g>
<g>
	<rect x="250" y="535" fill="#323A3C" width="2" height="11"/>
</g>
<g>
	<rect x="253" y="535" fill="#323A3C" width="2" height="11"/>
</g>
<g>
	<rect x="256" y="535" fill="#323A3C" width="2" height="11"/>
</g>
<g>
	<rect x="259" y="535" fill="#323A3C" width="2" height="11"/>
</g>
<g>
	<rect x="262" y="535" fill="#323A3C" width="2" height="11"/>
</g>
<g>
	<rect x="265" y="535" fill="#323A3C" width="2" height="11"/>
</g>
<g>
	<rect x="268" y="535" fill="#323A3C" width="2" height="11"/>
</g>
<g>
	<rect x="271" y="535" fill="#323A3C" width="2" height="11"/>
</g>
<g>
	<rect x="274" y="535" fill="#323A3C" width="2" height="11"/>
</g>
<g>
	<rect x="166" y="535" fill="#323A3C" width="2" height="11"/>
</g>
<g>
	<rect x="169" y="535" fill="#323A3C" width="2" height="11"/>
</g>
<g>
	<rect x="172" y="535" fill="#323A3C" width="2" height="11"/>
</g>
<g>
	<rect x="175" y="535" fill="#323A3C" width="2" height="11"/>
</g>
<g>
	<rect x="178" y="535" fill="#323A3C" width="2" height="11"/>
</g>
<g>
	<rect x="181" y="535" fill="#323A3C" width="2" height="11"/>
</g>
<g>
	<rect x="184" y="535" fill="#323A3C" width="2" height="11"/>
</g>
<g>
	<rect x="187" y="535" fill="#323A3C" width="2" height="11"/>
</g>
<g>
	<rect x="190" y="535" fill="#323A3C" width="2" height="11"/>
</g>
<g>
	<rect x="193" y="535" fill="#323A3C" width="2" height="11"/>
</g>
<g>
	<rect x="196" y="535" fill="#323A3C" width="2" height="11"/>
</g>
<g>
	<rect x="199" y="535" fill="#323A3C" width="2" height="11"/>
</g>
<g>
	<rect x="202" y="535" fill="#323A3C" width="2" height="11"/>
</g>
<g>
	<rect x="205" y="535" fill="#323A3C" width="2" height="11"/>
</g>
<g id="mirror_left">
	<g id="mirror_left_1_">
		<g>
			<g>
				<path fill-rule="evenodd" clip-rule="evenodd" fill="#323A3C" d="M123.74664,253.20508
					c-0.0957-0.086-0.17291-0.09717-0.23395-0.09717c-0.00879,0-0.01758,0.00049-0.02539,0.00098
					c-6.16309,0.8335-12.25977,2.61523-19.18512,5.6059c-0.69037,0.30029-1.43304,1.28912-1.52728,2.02844
					c-0.33588,2.77051-0.53906,5.7002,0.23444,8.34125c0.14056,0.44635,0.54437,0.72266,0.8374,0.72266l0.0932-0.01221
					c3.43555-1.02734,7.15527-2.11182,10.87408-3.19684c2.789-0.81287,5.57806-1.6264,8.24457-2.41498
					c0.10162-0.03027,0.21735-0.09808,0.3335-0.19678l1.04443-0.88525l0.52539,1.2641
					c0.2984,0.71783,0.65527,1.31842,1.03809,1.76373v-14.25677c-0.24658,0.2876-0.48291,0.64246-0.70209,1.05658l-0.59869,1.12988
					L123.74664,253.20508z"/>
			</g>
		</g>
		<g>
			<g>
				<path fill="#323A3C" d="M123.52374,252.10669c-0.05615,0-0.11304,0.0036-0.17084,0.01111
					c-6.39038,0.86493-12.5376,2.69519-19.44977,5.67999c-1.00079,0.43542-1.98035,1.71979-2.12091,2.82501
					c-0.36523,3.01318-0.53973,5.98761,0.27338,8.76178c0.27094,0.86023,1.05933,1.42273,1.79102,1.42273
					c0.12958,0,0.25732-0.01764,0.38013-0.05438c6.0105-1.79712,12.89026-3.7702,19.11749-5.61133
					c0.24896-0.0744,0.48267-0.2135,0.6944-0.3927c0.72528,1.74438,1.77356,2.93121,2.96136,3.19409v-17.88312
					c-0.99646,0.22211-1.89386,1.09442-2.58569,2.40076C124.16791,252.23993,123.86249,252.10669,123.52374,252.10669z
					 M125,255.62799v6.31628l-0.20081-0.46198l-2.07727,1.75769c-2.65283,0.78424-5.42322,1.5921-8.19348,2.40002
					c-3.55011,1.03528-7.21771,2.10498-10.57513,3.1073c-0.703-2.46729-0.50531-5.24591-0.18707-7.87219
					c0.05048-0.3974,0.56586-1.08282,0.92969-1.24121c6.72321-2.90302,12.64648-4.65143,18.60077-5.48938l1.68829,1.5119
					L125,255.62799z"/>
			</g>
		</g>
	</g>
</g>
<g id="mirror">
	<g>
		<path fill-rule="evenodd" clip-rule="evenodd" fill="#4C5B5F" d="M120.75214,257.08673
			c-4.8418,0.63739-9.49933,1.98615-14.73645,4.18585c-0.7583,0.32074-1.50037,1.26733-1.60687,2.08185
			c-0.22772,1.82739-0.33179,3.63025-0.02728,5.35266c5.55011-1.65808,11.80396-3.45886,17.61841-5.17059
			c0-1.71741,0-3.43481,0-5.15198C121.99982,257.59088,121.44202,256.99957,120.75214,257.08673z"/>
	</g>
</g>
</svg>
