<?xml version="1.0" encoding="utf-8"?>
<!-- Generator: Adobe Illustrator 17.0.0, SVG Export Plug-In . SVG Version: 6.00 Build 0)  -->
<!DOCTYPE svg PUBLIC "-//W3C//DTD SVG 1.1//EN" "http://www.w3.org/Graphics/SVG/1.1/DTD/svg11.dtd">
<svg version="1.1" id="car_17_1_" xmlns="http://www.w3.org/2000/svg" xmlns:xlink="http://www.w3.org/1999/xlink" x="0px" y="0px"
	 width="440px" height="680px" viewBox="0 0 440 680" enable-background="new 0 0 440 680" xml:space="preserve">
<g id="shape">
	<g id="shape_55_">
		<g>
			<g>
				<path fill-rule="evenodd" clip-rule="evenodd" fill="#F22B33" d="M344.19037,416.53027
					c-6.53809-40.12109-15.49115-95.0694-6.63464-140.72845C345.36127,235.55658,347,196.05273,347,170
					c0-37.28607-19.33112-76.11127-48.10248-96.61182C276.37891,57.34283,248.06842,56,221,56
					c-26.94629,0-55.12061,1.31641-77.42041,17.04932C114.52252,93.5498,95,132.51123,95,170
					c0,25.99951,1.63232,65.42822,9.40924,105.61823c8.88715,45.9306,0.31488,101.16205-5.9444,141.49115
					c-2.89502,18.65228-5.39551,34.76172-5.54193,45.75104c-0.29742,22.84955-0.36871,46.04095-0.21198,68.93347
					c0.14355,17.23541,7.32867,35.97949,19.71289,51.4278c12.92236,16.11908,29.61182,26.58789,47.01904,29.48041
					c20.51361,3.13867,41.39252,4.72949,62.05713,4.72949c20.66412,0,41.54388-1.59082,62.08301-4.7334
					c17.38177-2.88861,34.07031-13.35742,46.99316-29.4765c12.3847-15.4483,19.56934-34.19238,19.71295-51.43073
					c0.15619-22.88959,0.0849-46.08099-0.21204-68.93054C349.92871,451.74896,347.26947,435.42767,344.19037,416.53027z"/>
			</g>
		</g>
		<g>
			<g>
				<path fill="#323A3C" d="M346.16412,416.20911c-6.51324-39.97266-15.43323-94.71698-6.6452-140.02661
					c7.83618-40.40302,9.48096-80.04321,9.48096-106.18268c0-37.90253-19.66797-77.38232-48.9411-98.24054
					c-23.00037-16.38806-51.66748-17.75946-79.0589-17.75946c-27.26709,0-55.79456,1.34467-78.57343,17.41541
					c-29.56354,20.85779-49.42651,60.47577-49.42651,98.58459c0,26.08667,1.63867,65.65198,9.4455,105.99847
					c8.82098,45.58838,0.27966,100.62134-5.95703,140.8045c-2.90662,18.72748-5.41681,34.90118-5.56506,46.0307
					c-0.29773,22.88599-0.36902,46.091-0.21204,68.97162c0.14703,17.6814,7.49213,36.87585,20.1521,52.66766
					c13.2309,16.50372,30.35791,27.22852,48.2262,30.19849l0.02551,0.00433l0.02551,0.00391
					c20.61298,3.15295,41.59369,4.75171,62.35925,4.75171c20.76575,0,41.7464-1.59875,62.35944-4.75171l0.02551-0.00391
					l0.02545-0.00433c17.86835-2.96997,34.9953-13.69476,48.22614-30.19849c12.65997-15.79181,20.00519-34.98627,20.15216-52.6618
					c0.15704-22.88647,0.08569-46.09149-0.21198-68.9762C351.92657,451.57416,349.2561,435.18549,346.16412,416.20911z
					 M348.28882,531.77759c-0.28705,34.50269-29.43042,73.02972-65.03442,78.94788
					c-20.50958,3.13721-41.13202,4.70575-61.75452,4.70575c-20.62238,0-41.24475-1.56854-61.75446-4.70575
					c-35.604-5.91815-64.74731-44.44519-65.0343-78.94788c-0.15753-22.96362-0.08679-45.92828,0.21179-68.89081
					c0.461-34.58978,24.49402-120.23309,11.44971-187.64825c-7.97998-41.2417-9.37268-81.76093-9.37268-105.23871
					c0-35.87933,18.67889-74.81824,47.73254-95.3161c21.03479-14.84039,47.50781-16.6839,76.2674-16.6839
					c28.97455,0,55.62793,1.97601,76.73773,17.01721c28.78479,20.51019,47.26227,59.2973,47.26227,94.98279
					c0,23.51251-1.39679,64.11652-9.40778,105.42096c-13.06433,67.35803,12.0238,152.87622,12.4848,187.466
					C348.37561,485.8493,348.44629,508.81396,348.28882,531.77759z"/>
			</g>
		</g>
	</g>
</g>
<g id="shape_1_">
	<g>
		<path fill-rule="evenodd" clip-rule="evenodd" fill="#4FD8F8" d="M224.00952,58.01422
			c0.36926,185.78668,0.36957,371.60626,0.00238,557.39319c5.7027-0.03534,11.40479-0.19263,17.10437-0.46771
			c2.85541-185.47394,2.84845-370.98041-0.02319-556.4541C235.51508,58.1731,229.81122,58.04462,224.00952,58.01422z"/>
		<path fill-rule="evenodd" clip-rule="evenodd" fill="#4FD8F8" d="M201.90771,58.42242
			c-2.8725,185.49469-2.8797,371.02234-0.02423,556.51727c5.69971,0.27509,11.40173,0.43237,17.10449,0.46771
			c-0.36725-185.7887-0.367-371.60999,0.00244-557.3985C213.19012,58.02759,207.48828,58.13861,201.90771,58.42242z"/>
	</g>
</g>
<g id="shape_2_">
	<g>
		<path fill-rule="evenodd" clip-rule="evenodd" fill="#C41212" d="M179,434.99988c-0.5-2.75012-3-11-3-11l-34,90l4,58
			c0,0,40.875-8.50012,42-9.00012s3,1.00012,4,4.00012s4,11.99988,4,11.99988h3c0,0-8-35.37488-12-54.99988
			S179.5,437.74988,179,434.99988z"/>
		<path fill-rule="evenodd" clip-rule="evenodd" fill="#C41212" d="M164,393.28546c0-35.18805-7.97278-62.97858-7.97278-62.97858
			l-6.9762,2.99902c0,0-8.96936,48.18365-13.95233,21.99249c-4.98297-26.19122-19.13458-78.37341-23.91815-119.95929
			c-4.78375-41.58569-7.97284-84.771,2.98975-113.96118c9.20721-24.51611,32.46722-45.92285,39.68225-52.15173
			c-3.13666,1.59442-6.18646,3.38782-9.12012,5.45752C115.67883,95.1817,97,134.12042,97,169.99982
			c0,23.47791,1.39264,63.99701,9.3725,105.23871C119.41693,342.65369,95.38391,428.297,94.92303,462.8869
			c-0.29883,22.96246-0.36945,45.92719-0.21191,68.89069c0.15991,19.22528,9.28601,39.69348,23.4903,55.08002
			c-6.5813-46.69702-5.61963-124.00189-4.03113-125.59521c1.79382-1.79938,20.13123,39.38647,21.92505,38.98657
			c1.79376-0.39966,9.59119-24.99127,14.97278-38.98657S164,428.47339,164,393.28546z"/>
		<path fill-rule="evenodd" clip-rule="evenodd" fill="#C41212" d="M157,166.99982c0.6814,13.1889-1,26,0.67932,25.83209
			c1.67944-0.16791,25.90851-29.43512,29.26715-34.3053c3.35883-4.8703,5.03815-9.57263,6.04584-16.12219
			C194,135.8548,155.16028,120.62579,156,125.99982C156.8396,131.37378,156.2478,152.44171,157,166.99982z"/>
		<path fill-rule="evenodd" clip-rule="evenodd" fill="#C41212" d="M263,434.99988c-0.5,2.75-4,69.375-8,89
			s-12,54.99988-12,54.99988h3c0,0,3-8.99988,4-11.99988s2.875-4.50012,4-4.00012s42,9.00012,42,9.00012l4-58l-34-90
			C266,423.99988,263.5,432.24976,263,434.99988z"/>
		<path fill-rule="evenodd" clip-rule="evenodd" fill="#C41212" d="M335.59198,275.4209
			C343.60309,234.11639,345,193.51239,345,169.99982c0-35.68542-18.47748-74.47272-47.26233-94.98273
			c-3.40967-2.4295-6.97839-4.4859-10.66376-6.2804C294.19458,74.85303,317.71777,96.3598,327,120.99982
			c11,29.20007,7.79987,72.40009,3,114.00006c-4.80011,41.59991-19,93.79993-24,120c-5,26.20001-14-22-14-22l-7-3
			c0,0-8,27.79993-8,63c0,35.20001,7.59998,54,13,68c5.3999,14,13.19989,38.60004,15,39c1.79987,0.3999,20.19989-40.80011,22-39
			c1.62292,1.62299,2.59399,81.7757-4.41431,128.16638c15.46222-15.60828,25.5351-37.18365,25.70313-57.38867
			c0.15747-22.9635,0.08679-45.92822-0.21191-68.89069C347.61603,428.297,322.52771,342.77881,335.59198,275.4209z"/>
		<path fill-rule="evenodd" clip-rule="evenodd" fill="#C41212" d="M284,191.99982c1.66663,0.16669,1.1394-12.89441,1-26
			c-0.16162-15.17413,0.2536-27.48901,0-36c-0.16089-5.39551-37,5.50006-36,12c1,6.50006,2.66663,11.16669,6,16
			C258.33319,162.83319,282.33319,191.83319,284,191.99982z"/>
	</g>
</g>
<g>
	<path fill="#323A3C" d="M273.49316,364.14648c2.58984-26.37061,14.72949-29.65674,14.85156-29.68652L288,333l0.33105,1.46289
		L288,333l-0.33105-1.46289c-0.58398,0.13232-14.33887,3.56934-17.16211,32.31641c-2.75,28-6,60.99902-6,60.99902l-0.03516,0.35645
		l0.12988,0.33398c13.27637,34.16699,33.17188,85.9834,33.89648,89.53906c-0.07129,2.36328-2.48633,37.5752-6.48828,94.61133
		l2.99219,0.21094C296.95605,582.0625,301.5,517.08301,301.5,515c0-2.5-23.64844-63.63867-33.97168-90.20898
		C267.88574,421.15723,270.91016,390.44629,273.49316,364.14648z"/>
</g>
<g>
	<path fill="#323A3C" d="M170.97021,364.36816c-2.8208-28.78809-16.56494-32.23096-17.14844-32.36328l-0.67725,2.92236
		c0.12207,0.03027,12.25195,3.32178,14.84033,29.73389c2.58154,26.34277,5.60352,57.10449,5.96045,60.73633
		c-10.31494,26.60742-33.94678,87.84082-33.94678,90.34375c0,2.0625,4.4585,65.97461,6.375,93.35742l2.99316-0.20898
		c-3.92725-56.09668-6.29639-90.73145-6.3667-93.06738c0.72314-3.55762,20.60449-55.4541,33.87158-89.67383l0.12939-0.33301
		l-0.03516-0.35547C176.96582,425.45996,173.71826,392.41016,170.97021,364.36816z"/>
</g>
<g id="shape_5_">
	<g>
		<path fill-rule="evenodd" clip-rule="evenodd" fill="#323A3C" d="M168,445.99988l-26,67.99988l5,58.00012l39-8
			c0,0-13.20007-51-18-74.00012C163.20001,466.99988,168,445.99988,168,445.99988z"/>
		<path fill-rule="evenodd" clip-rule="evenodd" fill="#323A3C" d="M274,489.99976c-4.79999,23.00012-18,74.00012-18,74.00012l39,8
			l5-58.00012l-26-67.99988C274,445.99988,278.79993,466.99988,274,489.99976z"/>
	</g>
</g>
<g>
	
		<rect x="324.14215" y="372.84698" transform="matrix(-0.13184 -0.99127 0.99127 -0.13184 -15.72485 760.45667)" fill="#323A3C" width="1.99988" height="28.53452"/>
</g>
<g>
	
		<rect x="103.4516" y="386.16483" transform="matrix(-0.99102 -0.13368 0.13368 -0.99102 181.6368 786.52521)" fill="#323A3C" width="27.54113" height="2.0004"/>
</g>
<g>
	<path fill="#BC7500" d="M221,104c-22.99072,0-41,6.80859-41,15.5h2c0-7.31787,17.85986-13.5,39-13.5c21.14063,0,39,6.18213,39,13.5
		h2C262,110.80859,243.99023,104,221,104z"/>
</g>
<g id="shape_9_">
	<g id="shape_46_">
		<g>
			<g>
				<path fill-rule="evenodd" clip-rule="evenodd" fill="#323A3C" d="M263.8291,433.01947
					c-1.63959-4.9433-4.50879-5.57416-6.52338-5.6181c-11.99915-0.25977-24.21393-0.39459-36.30475-0.40137
					c-12.09326,0.00677-24.30859,0.1416-36.30566,0.40039c-2.01514,0.04492-4.88379,0.67578-6.52344,5.61517
					c-0.12939,0.39264-0.30566,0.88971-0.51807,1.48834c-2.02393,5.70215-7.40039,20.84857-5.2876,41.04199
					c2.41797,23.11426,10.5484,47.80176,11.8042,49.96478l0.32422,0.55859c1.33545,2.30774,3.82129,6.60364,6.16357,6.64752
					C200.68701,532.89941,210.896,532.99408,221,533c10.10449-0.00592,20.3125-0.10059,30.33978-0.2832
					c2.34381-0.04388,4.8291-4.33893,6.1651-6.64551l0.32129-0.55371c1.2597-2.17188,9.39063-26.86328,11.80762-49.97168
					c2.11328-20.19342-3.26367-35.33984-5.28809-41.04199C264.13379,433.90527,263.95697,433.4082,263.8291,433.01947z"/>
			</g>
		</g>
		<g>
			<g>
				<path fill="#323A3C" d="M257.34857,425.40137c-12.11487-0.26129-24.23169-0.39459-36.34845-0.40161
					c-12.11725,0.00702-24.23395,0.14032-36.34882,0.40161c-4.43713,0.0976-7.0025,2.84082-8.37872,6.9881
					c-1.37628,4.17303-8.27258,20.64795-5.89569,43.36481c2.37683,22.72144,10.44019,47.96289,12.06683,50.76599
					c1.62659,2.78204,4.474,8.12671,8.17859,8.19635c10.125,0.18359,20.25128,0.27734,30.37781,0.28314
					c10.12616-0.0058,20.2525-0.09955,30.3775-0.28314c3.70459-0.06964,6.552-5.41431,8.17859-8.19635
					c1.62659-2.8031,9.69-28.04456,12.06671-50.76599c2.37689-22.71686-4.51935-39.19177-5.89563-43.36481
					C264.35107,428.24219,261.78571,425.49896,257.34857,425.40137z M267.64459,475.3382
					c-2.35577,22.52148-10.26471,46.80701-11.5415,49.16321l-0.33008,0.56818c-2.62213,4.53088-3.88232,5.57239-4.4679,5.64771
					c-10.01874,0.1817-20.21552,0.27667-30.30273,0.28247c-10.09198-0.0058-20.28888-0.10077-30.29785-0.28204
					c-0.59534-0.07574-1.85565-1.11725-4.47772-5.64813l-0.31403-0.54022c-1.29291-2.38416-9.20166-26.66968-11.5575-49.19128
					c-2.06598-19.74481,3.20111-34.58136,5.1839-40.16669c0.2182-0.61469,0.39923-1.1261,0.52979-1.52209
					c1.21814-3.67072,2.96454-4.2113,4.66852-4.24878c11.99982-0.25891,24.20032-0.39362,36.26263-0.40076
					c12.06207,0.00714,24.26245,0.14185,36.26056,0.40063c1.70569,0.0376,3.45209,0.57819,4.66791,4.242
					c0.13293,0.40289,0.3139,0.91431,0.5321,1.52899C264.44348,440.75671,269.71057,455.59326,267.64459,475.3382z"/>
			</g>
		</g>
	</g>
</g>
<g id="shape_10_">
	<g>
		<path fill-rule="evenodd" clip-rule="evenodd" fill="#4C5B5F" d="M174.19757,476.06317
			c2.19733,21.06891,9.6521,44.47461,11.15601,47.07391c0.89063,1.52759,2.17975,3.883,3.79211,5.56799l-10.5282-89.89417
			C176.44928,445.10638,172.37347,458.57837,174.19757,476.06317z"/>
		<path fill-rule="evenodd" clip-rule="evenodd" fill="#4C5B5F" d="M252.87927,528.67908
			c1.60071-1.68317,2.8811-4.02222,3.76715-5.54199c1.50385-2.5993,8.95868-26.005,11.15594-47.07391
			c1.84955-17.72839-2.36487-31.32617-4.50769-37.50537L252.87927,528.67908z"/>
	</g>
</g>
<g id="shape_11_">
	<g>
		<path fill-rule="evenodd" clip-rule="evenodd" fill="#323A3C" d="M105,408.99988c0.17249,14.1665,3.07294,40,8.28442,40
			c6.23682,0,14.35547-10,14.35547-10l-1.03546-29L105,408.99988z"/>
		<path fill-rule="evenodd" clip-rule="evenodd" fill="#323A3C" d="M314.35999,438.99988c0,0,6.31519,10.0932,14.35553,10
			c4.9411-0.05737,8.11188-25.8335,8.28448-40l-21.60449,1L314.35999,438.99988z"/>
	</g>
</g>
<g>
	<path fill="#323A3C" d="M151.1875,397.00488c-0.51514-0.2002-1.09424,0.05762-1.29248,0.57324
		C149.70459,398.07227,130.64746,447,113.30615,447c-0.97852,0-4.34326-1.6748-6.57031-23.22754
		C105.45605,411.38281,105,396.65332,105,387c0-0.55273-0.44775-1-1-1s-1,0.44727-1,1c0,10.35352,0.49707,62,10.30615,62
		c18.7041,0,37.65723-48.63281,38.45508-50.70313C151.95996,397.78125,151.70313,397.20313,151.1875,397.00488z"/>
</g>
<g>
	<path fill="#323A3C" d="M337,385c-0.55273,0-1,0.44727-1,1c0,55.95898-5.15527,62-7.37207,62
		c-17.44824,0-35.30469-49.83105-35.4834-50.33398c-0.18457-0.52051-0.75391-0.79199-1.27637-0.6084
		c-0.52051,0.18457-0.79297,0.75586-0.6084,1.27637C292.00684,400.44336,309.77637,450,328.62793,450
		C332.65137,450,338,443.36523,338,386C338,385.44727,337.55273,385,337,385z"/>
</g>
<g id="shape_14_">
	<g>
		<path fill-rule="evenodd" clip-rule="evenodd" fill="#323A3C" d="M155.32605,120.89893
			C154,128.92413,165.6864,150.99359,170.245,151.9967s20.88647-4.01251,20.88647-4.01251s8.86853-40.29346,6.96216-44.13885
			C196.18738,99.99982,156.65222,112.8736,155.32605,120.89893z"/>
		<path fill-rule="evenodd" clip-rule="evenodd" fill="#323A3C" d="M243,103.99982c-1.91669,3.8335,7,44,7,44s16.41663,5,21,4
			c4.58331-1,16.33331-23,15-31C284.66663,112.99982,244.91663,100.16663,243,103.99982z"/>
	</g>
</g>
<g id="shape_15_">
	<g id="shape_3_">
		<g>
			<g>
				<path fill-rule="evenodd" clip-rule="evenodd" fill="#4C5B5F" d="M284.2334,207.84772
					C268.90137,195.04883,247.51563,188,224.01758,188h-6.03516c-23.49854,0-44.8833,7.04883-60.21582,19.84772
					c-16.1665,13.49457-24.73047,32.3252-24.7666,54.45447v0.07281l5.02441,70.87988l0.00488,0.13519
					c0,14.96631,3.76318,35.66266,9.82031,54.01221l2.26855,6.87213l1.80469-8.04205
					c0.65381-2.86908,1.17041-5.13568,1.17041-9.37592v-19.48438c0-33.16998,27.08301-55.45605,67.39215-55.45605h1.02917
					c40.30859,0,67.39172,22.28607,67.39172,55.45605v19.68457c0,1.72656,0.57996,4.39355,1.38367,8.08594
					c0.22272,1.0224,0.46002,2.11523,0.70325,3.26849L292.5,395.5752l2.34473-6.93463
					c4.38867-12.9765,9.12598-37.79095,9.12598-55.25049v-0.0708l5.02441-70.87195L309,262.30219
					C308.96387,240.17328,300.39941,221.34277,284.2334,207.84772z"/>
			</g>
		</g>
		<g>
			<g>
				<path fill="#323A3C" d="M285.51508,206.31201C269.82391,193.21362,247.9837,186,224.01758,186h-6.03516
					c-23.96613,0-45.80634,7.21362-61.49756,20.31201c-16.63495,13.88641-25.44745,33.2464-25.48486,55.98706l-0.00018,0.14502
					l0.01019,0.14453l5.0191,70.80365c-0.00012,15.16174,3.8017,36.09833,9.92151,54.63733l4.53735,13.74536l3.16425-14.12488
					l0.22113-0.97601c0.65466-2.87299,1.22003-5.35419,1.22003-9.81732V357.3717c0-31.97363,26.27899-53.45581,65.39203-53.45581
					h1.02917c39.11304,0,65.39203,21.48218,65.39203,53.45581v19.68506c0,1.94073,0.59967,4.69635,1.42938,8.51019
					c0.22162,1.01855,0.45837,2.10693,0.70007,3.2561l3.01294,14.32794l4.69061-13.86951
					c4.43958-13.12726,9.23138-38.22882,9.23138-55.89142v0.00055l5.01898-70.802l0.01019-0.14453L311,262.29907
					C310.96259,239.55841,302.15009,220.19843,285.51508,206.31201z M301.9809,333.10938l-0.00989,0.14014v0.14056
					c0,16.83801-4.49902,41.24042-9.02051,54.60992c-1.0694-5.08539-2.04388-8.98669-2.04388-10.94324V357.3717
					c0-34.36621-27.88654-57.45581-69.39203-57.45581h-1.02917c-41.50549,0-69.39203,23.0896-69.39203,57.45581v19.48505
					c0,4.46613-0.58862,6.54535-1.34436,9.91895c-5.61224-17.00122-9.72003-37.65912-9.72003-53.38562v-0.14056l-0.00983-0.14014
					L135,262.30573c0.0354-21.52032,8.34924-39.81799,24.04828-52.92291C174.02148,196.88361,194.95148,190,217.98242,190h6.03516
					c23.03094,0,43.96094,6.88361,58.9342,19.38281C298.65082,222.48773,306.9646,240.7854,307,262.30573L301.9809,333.10938z"/>
			</g>
		</g>
	</g>
</g>
<g id="shape_16_">
	<g>
		<path fill-rule="evenodd" clip-rule="evenodd" fill="#323A3C" d="M236.88647,294.18042
			c-0.50629-2.11493-2.69226-3.73035-4.91156-3.73035H210.8783c-2.21918,0-4.40521,1.61542-4.91162,3.73035l-0.24066,1.005
			c-0.55933,2.33569,1.02521,4.35455,3.57611,4.35455h9.67786v0.95154c0.50134-0.00684,0.99493-0.02625,1.50024-0.02625h1.03955
			c0.50531,0,0.9989,0.01941,1.50024,0.02625v-0.95154h10.53107c2.55103,0,4.13544-2.01886,3.57611-4.35455L236.88647,294.18042z"/>
		<path fill-rule="evenodd" clip-rule="evenodd" fill="#323A3C" d="M283.57117,209.02692
			c-15.12299-12.62421-36.26215-19.5766-59.52344-19.5766h-6.09552c-23.26123,0-44.40039,6.95239-59.5235,19.5766
			c-15.85596,13.23596-24.25287,31.71661-24.2887,53.45221l1.02271,14.42657c4.59302-1.70538,9.29669-3.30249,14.14532-4.73639
			l0.84039,3.36279c0.54535,2.18182,3.39081,3.80811,6.37268,3.70068l40.49451-1.45636
			c2.98187-0.10724,5.70355-1.93365,6.09137-4.14905l1.92529-10.99957c5.09473-0.29443,10.24829-0.45758,15.46271-0.45758
			c31.50958,0,61.01178,5.495,86.31909,15.0636l1.0459-14.7547C307.82422,240.74353,299.42719,222.26288,283.57117,209.02692z"/>
	</g>
</g>
<g id="wheel">
	<g id="wheel_3_">
		<g>
			<g>
				<path fill="#323A3C" d="M178.38361,264.10773c-0.26819,0-0.53558,0.00269-0.80609,0.0083
					c-12.77301,0.2627-23.16217,6.69159-23.20526,14.35925c-0.04187,7.50543,9.84656,13.4162,22.24384,13.4162
					c0.26831,0,0.53571-0.00269,0.80621-0.0083c12.77289-0.2627,23.16217-6.69159,23.2052-14.3595
					C200.66937,270.01849,190.78101,264.10773,178.38361,264.10773z M177.31879,286.88428
					c-0.2359,0.00494-0.46881,0.0072-0.7027,0.0072c-6.54327,0-12.50488-1.90747-15.55841-4.97815
					c-1.12476-1.13092-1.69177-2.27826-1.68555-3.40985c0.02399-4.2547,7.85864-9.17358,18.30878-9.38855
					c0.2359-0.00494,0.46881-0.0072,0.7027-0.0072c6.54327,0,12.50488,1.90747,15.55847,4.97815
					c1.12469,1.13092,1.69183,2.2782,1.68555,3.40985C195.6037,281.75031,187.7691,286.66931,177.31879,286.88428z"/>
			</g>
		</g>
	</g>
</g>
<g id="wheel_1_">
	<g>
		<path fill-rule="evenodd" clip-rule="evenodd" fill="#323A3C" d="M185.83679,277.77667
			c-0.16309-2.81696-4.02802-4.77686-8.6322-4.37775c-4.60437,0.39929-8.20459,3.00665-8.0415,5.82379
			c0.14429,2.49316,3.19031,4.31177,7.08051,4.42065c0.93109,2.59705,1.09503,5.29474-0.24359,6.35645
			c-1.8125,1.43726,10.25-1.25024,9-2c-0.87323-0.52399-2.505-3.1814-3.04962-5.46124
			C184.37347,281.43927,185.94568,279.65668,185.83679,277.77667z"/>
	</g>
</g>
<g id="shape_17_">
	<g id="shape_38_">
		<g>
			<g>
				<path fill-rule="evenodd" clip-rule="evenodd" fill="#323A3C" d="M318.59381,106.04639
					c-5.37311-6.88177-13.57233-14.06061-16.6377-15.78857l-0.91022-0.5127l-0.94043,0.45306
					c-2.28906,1.1026-6.92389,4.9043-7.88867,7.15735l-0.15723,0.36719l-0.00385,0.39941
					c-0.05286,5.14984,0.79285,23.53705,2.27728,27.78705l0.21289,0.61133l0.53119,0.37012
					c4.35162,3.03369,28.9043,13.86328,35.50104,14.96777c0.55859,0.09369,1.07416,0.1416,1.53125,0.1416
					c0.36914,0,0.70313-0.03131,0.99414-0.09277l1.1524-0.24359l0.3457-1.12555c0.35345-1.15088,0.25385-2.91901-0.2959-5.25391
					C333.36719,131.29352,324.75977,113.94531,318.59381,106.04639z"/>
				<path fill-rule="evenodd" clip-rule="evenodd" fill="#323A3C" d="M149.93994,97.72272l-0.15674-0.36719
					c-0.96436-2.25305-5.59912-6.05475-7.88916-7.15735l-0.94043-0.45306l-0.90918,0.5127
					c-3.06543,1.7276-11.26514,8.90631-16.63824,15.78857c-6.16345,7.896-14.7724,25.24463-15.71185,29.2373
					c-0.55029,2.33844-0.64941,4.10693-0.29443,5.25684l0.34619,1.12256l1.14941,0.24414
					c0.29053,0.06146,0.625,0.09277,0.99512,0.09277c0.45752,0,0.97272-0.04791,1.5293-0.14111
					c6.59821-1.10498,31.15186-11.93457,35.50342-14.96826l0.53076-0.37012l0.21338-0.61133
					c1.48438-4.25,2.32959-22.63721,2.27686-27.78705L149.93994,97.72272z"/>
			</g>
		</g>
		<g>
			<g>
				<path fill="#323A3C" d="M320.1701,104.81598c-5.60602-7.1814-13.95081-14.45099-17.23279-16.3006l-1.81891-1.02509
					l-1.88104,0.90613c-2.31927,1.11719-7.57434,5.16956-8.85925,8.17316l-0.31384,0.73395l-0.00824,0.7981
					c-0.04144,4.01129,0.65155,23.49347,2.38818,28.46698l0.42676,1.22241l1.06219,0.74042
					c4.56732,3.18365,29.3432,14.1322,36.31622,15.29999C330.9187,143.9433,331.54437,144,332.1095,144
					c0.51532,0,0.99408-0.04688,1.42297-0.1394l2.28992-0.49402l0.68964-2.23865c0.46655-1.51544,0.38177-3.5769-0.25964-6.30243
					C335.151,130.14392,326.24292,112.59509,320.1701,104.81598z M332.68909,139.9505
					c-0.1084,0.02338-0.29358,0.0495-0.57959,0.0495c-0.3454,0-0.7489-0.03839-1.19952-0.11377
					c-6.49109-1.08691-30.65491-11.82385-34.68939-14.63623c-1.34369-3.84839-2.22058-21.69849-2.16479-27.10712
					c0.70502-1.64795,4.82904-5.13678,6.9176-6.14288c2.81213,1.5849,10.77649,8.53003,16.0437,15.2774
					c5.90192,7.56018,14.45709,24.7049,15.34161,28.46429C333,138.46692,332.79492,139.60712,332.68909,139.9505z"/>
				<path fill="#323A3C" d="M151.93573,97.30353l-0.31384-0.73395c-1.28491-3.0036-6.53998-7.05597-8.85925-8.17316
					l-1.88098-0.90613l-1.81891,1.02509c-3.28192,1.84961-11.62683,9.1192-17.23285,16.3006
					c-6.07275,7.77911-14.9809,25.32794-16.0824,30.00964c-0.64117,2.7254-0.72607,4.78687-0.25946,6.30231l0.68958,2.23865
					l2.28992,0.49402c0.42889,0.09253,0.90778,0.1394,1.42297,0.1394c0.56512,0,1.19073-0.0567,1.85944-0.16852
					c6.97369-1.16785,31.74957-12.11639,36.31683-15.30005l1.06226-0.74042l0.42676-1.22241
					c1.73657-4.97351,2.42957-24.45569,2.38818-28.46698L151.93573,97.30353z M145.77942,125.25
					c-4.03455,2.81238-28.1983,13.54932-34.68939,14.63623C110.6394,139.96161,110.2359,140,109.8905,140
					c-0.28601,0-0.47119-0.02612-0.57959-0.0495c-0.10577-0.34338-0.31091-1.48358,0.33038-4.2088
					c0.8844-3.7594,9.4397-20.90411,15.34161-28.46429c5.26721-6.74738,13.23163-13.6925,16.0437-15.2774
					c2.08868,1.0061,6.21265,4.49493,6.91766,6.14288C148,103.55151,147.12317,121.40161,145.77942,125.25z"/>
			</g>
		</g>
	</g>
</g>
<g id="shape_18_">
	<g>
		<path fill-rule="evenodd" clip-rule="evenodd" fill="#A0C5CF" d="M141.02661,92
			c-2.81207,1.58478-10.77649,8.53003-16.0437,15.2774c-5.90179,7.56018-14.45721,24.70477-15.34167,28.46429
			c-0.64124,2.72522-0.4361,3.86548-0.33032,4.20892c0.10828,0.02319,0.2937,0.04938,0.57959,0.04938
			c0.34534,0,0.7489-0.03827,1.19952-0.11377c0.64917-0.1087,1.48157-0.3175,2.44647-0.60181l27.94385-47.04431
			C141.32135,92.15009,141.16858,92.06842,141.02661,92z"/>
		<path fill-rule="evenodd" clip-rule="evenodd" fill="#A0C5CF" d="M140.39502,121.14978h-8.93701
			c-2.19366,0-4.13647,1.24524-4.34827,2.84985l-1.42102,10.76599c7.77911-3.22644,16.08331-7.10083,19.28668-9.00763
			l-0.23212-1.75836C144.53149,122.39502,142.58875,121.14978,140.39502,121.14978z"/>
	</g>
</g>
<g id="shape_19_">
	<g>
		<path fill-rule="evenodd" clip-rule="evenodd" fill="#A0C5CF" d="M311,120.99982h-9c-2.20923,0-4.16559,1.24152-4.37891,2.84119
			l-0.28027,2.10272c3.49365,2.01306,11.836,5.88336,19.52527,9.052l-1.4873-11.15472
			C315.16547,122.24133,313.20911,120.99982,311,120.99982z"/>
		<path fill-rule="evenodd" clip-rule="evenodd" fill="#A0C5CF" d="M317.01709,107.2774
			c-5.26727-6.74738-13.23157-13.69263-16.04382-15.2774c-0.04144,0.02002-0.08868,0.04712-0.13177,0.06897l28.47302,47.45496
			c0.60559,0.16156,1.14648,0.28705,1.59546,0.3623C331.3606,139.96173,331.76422,140,332.1095,140
			c0.28589,0,0.47119-0.02618,0.57959-0.04938c0.10583-0.34344,0.31091-1.4837-0.33026-4.20892
			C331.47418,131.98218,322.91888,114.83759,317.01709,107.2774z"/>
	</g>
</g>
<g>
	<path fill="#323A3C" d="M249.29492,566.89063c-0.0752,0.27734-0.14063,0.53223-0.22363,0.73828
		c-0.48926,1.22461-2.98242,8.16211-3.77539,10.37109h-49.58984c-0.7915-2.22559-3.28662-9.23242-3.77637-10.46777
		c-0.08252-0.20898-0.14893-0.4668-0.22412-0.74707c-0.41797-1.55859-1.28662-4.80176-5.89746-3.90234
		c-4.42871,0.86523-41.00146,8.07227-41.00146,8.07227l0.38672,1.96289c0,0,36.56982-7.20703,40.99805-8.07227
		c2.77783-0.54004,3.15088,0.84766,3.58252,2.45801c0.09717,0.36328,0.18945,0.69531,0.29639,0.96484
		c0.55811,1.4082,3.95313,10.96973,3.9873,11.06641L194.29395,580h52.41016l0.2373-0.66309
		c0.03418-0.0957,3.42871-9.57031,3.9873-10.96582c0.10742-0.26758,0.19922-0.59766,0.29688-0.95801
		c0.43066-1.59375,0.7959-2.97168,3.58398-2.43164c4.42871,0.85742,40.99902,8,40.99902,8l0.38281-1.96289
		c0,0-36.57227-7.14258-41.00098-8C250.58105,562.12988,249.71387,565.34473,249.29492,566.89063z"/>
</g>
<g id="shape_21_">
	<g>
		<polygon fill-rule="evenodd" clip-rule="evenodd" fill="#323A3C" points="110,297.99988 137,423.99988 140,420.99988 
			106,274.99988 		"/>
		<path fill-rule="evenodd" clip-rule="evenodd" fill="#323A3C" d="M164,533.99988l8-15l-5-20
			C164.28558,510.85706,164,533.99988,164,533.99988z"/>
		<path fill-rule="evenodd" clip-rule="evenodd" fill="#323A3C" d="M117,269.99988c4.41614,0,19,0,19,0l-2-2c0,0-14.62207,0-17,0
			c-2.37811,0-16-30-16-30S112.58374,269.99988,117,269.99988z"/>
		<path fill-rule="evenodd" clip-rule="evenodd" fill="#323A3C" d="M157.31238,125.00092l-2.23035-3.0011
			c0,0-0.08203,67.0658,1.11511,86.0329c0.84808,13.4353,1.90009,11.33551,2.23871,4c0.31793-0.50378,0.56415-1.0329,0.56415-1.0329
			s-0.25-15.49994,1-19c1.25-3.5,12-16,12-16s-11.98743,12.06549-13.83105,15.62939
			C157.70197,169.51068,157.31238,125.00092,157.31238,125.00092z"/>
		<path fill-rule="evenodd" clip-rule="evenodd" fill="#323A3C" d="M325,267.99988c-2.37811,0-17,0-17,0l-2,2c0,0,14.58368,0,19,0
			c4.41608,0,16-32,16-32S327.37787,267.99988,325,267.99988z"/>
		<polygon fill-rule="evenodd" clip-rule="evenodd" fill="#323A3C" points="305,423.99988 332,297.99988 336,274.99988 
			302,420.99988 		"/>
		<path fill-rule="evenodd" clip-rule="evenodd" fill="#323A3C" d="M270,518.99988l8,15c0,0-0.28583-23.14282-3-35L270,518.99988z"
			/>
		<path fill-rule="evenodd" clip-rule="evenodd" fill="#323A3C" d="M284,124.99982c0,0-0.33972,43.26599-0.75073,65.66876
			C280.3598,186.39648,270,175.99982,270,175.99982s10.69061,12.3941,11.93359,15.8645
			c0.68628,1.91589,0.91748,7.45599,0.98743,12.03656c-0.04193,2.2641-0.03375,4.41174,0.01337,6.31604
			c-0.00348,0.30811-0.00629,0.48627-0.00629,0.48627s0.0083,0.0177,0.01971,0.04163
			c0.21417,7.32062,1.0202,10.59796,1.75757,1.60187c0.12878-0.27356,0.21173-0.7785,0.21173-1.64349
			c0-0.38721,0.00061-0.85016,0.0011-1.34387c0.0274-0.43854,0.05481-0.8822,0.08179-1.3595c1.07349-18.95984,1-86,1-86
			L284,124.99982z"/>
	</g>
</g>
<g id="shape_22_">
	<g>
		<path fill-rule="evenodd" clip-rule="evenodd" fill="#323A3C" d="M119,274.99988c-3.63586,0-26,0-26,0s-6.15076,6,0,6
			c6.15063,0,23.33289,3,27,3C123.66699,283.99988,122.63574,274.99988,119,274.99988z"/>
	</g>
</g>
<g id="shape_23_">
	<g id="shape_32_">
		<g>
			<g>
				<path fill-rule="evenodd" clip-rule="evenodd" fill="#FF151F" d="M93,273.5c-5.38916,0-18.22797,14.44092-19.42291,18.02588
					c-0.65326,1.95905-1.97308,7.56494-0.26019,9.94189c0.52203,0.72412,1.28711,1.12354,2.1543,1.12354c0,0,0,0,0.00055,0
					c0.31927,0,0.65179-0.05524,0.98865-0.16364c0.22473-0.07269,23.00641-7.77338,24.60065-9.36719
					c1.6084-1.60931,0.80768-9.42279-0.9682-13.70941C98.08893,274.51508,95.12994,273.5,93,273.5z"/>
			</g>
		</g>
		<g>
			<g>
				<path fill="#323A3C" d="M93,271.99988c-1.0462,0-4.2298,0-12.29456,8.05322c-0.74963,0.74841-7.35742,7.41571-8.55151,10.99817
					c-0.10583,0.31732-2.56232,7.81342-0.05402,11.29364c0.79993,1.1098,2.02881,1.74622,3.37152,1.74622
					c0.47589,0,0.96338-0.07941,1.4491-0.2359c1.5827-0.51031,7.48651-2.55664,12.77881-4.47815
					c11.25116-4.08508,11.84637-4.6803,12.42188-5.2558c2.4668-2.4671,0.96539-11.46216-0.64227-15.3432
					C99.03583,272.88049,95.11792,271.99988,93,271.99988z M100,291.99988c-1.08258,1.08252-21.11621,8.07025-24,9
					c-0.19189,0.06195-0.36761,0.09125-0.52856,0.09125c-2.25903,0-1.57001-5.79572-0.47144-9.09125
					c1.17682-3.53046,13.69031-17,18-17C100.45282,274.99988,101.08252,290.91718,100,291.99988z"/>
			</g>
		</g>
	</g>
</g>
<g id="shape_24_">
	<g>
		<path fill-rule="evenodd" clip-rule="evenodd" fill="#C41212" d="M93,274.99988c-4.30969,0-16.8233,13.46954-18,17
			c-0.0578,0.1734-0.11328,0.35864-0.16846,0.54474C80.68762,286.76678,91.92542,280.24048,93,280.99988
			c1.03693,0.73285,2.8421,6.112,3.1178,12.76404c2.11719-0.83679,3.60809-1.48993,3.8822-1.76404
			C101.08252,290.91718,100.45294,274.99988,93,274.99988z"/>
	</g>
</g>
<g id="shape_25_">
	<g>
		<path fill-rule="evenodd" clip-rule="evenodd" fill="#323A3C" d="M348.69519,274.97729c0,0-22.38477,0-26.02386,0
			c-3.63922,0-4.67133,9.04041-1.00092,9.04041s20.86841-3.01349,27.02478-3.01349
			C354.85162,281.00421,348.69519,274.97729,348.69519,274.97729z"/>
	</g>
</g>
<g id="shape_26_">
	<g id="shape_29_">
		<g>
			<g>
				<path fill-rule="evenodd" clip-rule="evenodd" fill="#FF151F" d="M348.69531,273.47748c-2.125,0-5.0791,1.01324-7.08405,5.84039
					c-1.9043,4.58252-2.45599,12.31744-0.98529,13.79492c1.59863,1.60303,24.39844,9.33539,24.62305,9.4082
					c0.33685,0.10889,0.6709,0.16449,0.99115,0.16449c0.86621,0,1.63092-0.39838,2.15344-1.12146
					c1.71765-2.38043,0.39636-8.01373-0.25793-9.98291C366.93951,287.98053,354.08978,273.47748,348.69531,273.47748z"/>
			</g>
		</g>
		<g>
			<g>
				<path fill="#323A3C" d="M361.00287,280.06659c-8.07208-8.08929-11.26007-8.08929-12.30768-8.08929
					c-2.11401,0-6.02551,0.87921-8.47052,6.76721c-1.61938,3.8996-3.13696,12.94202-0.66095,15.4267
					c0.57574,0.57788,1.17126,1.17548,12.43298,5.27899c5.29919,1.93079,11.20789,3.98608,12.79071,4.49811
					c0.48657,0.15759,0.9754,0.23743,1.45258,0.23743c1.34143,0,2.56958-0.6358,3.36951-1.74451
					c2.51422-3.4845,0.05511-11.01453-0.05078-11.33331C368.36481,287.51331,361.75287,280.81812,361.00287,280.06659z
					 M366.23987,301.18573c-0.16095,0-0.33716-0.0296-0.52905-0.09174c-2.88641-0.93378-22.93842-7.95288-24.02209-9.04041
					c-1.08362-1.0874-0.45331-17.07629,7.00647-17.07629c4.3136,0,16.83862,13.53003,18.01648,17.07629
					C367.8114,295.36407,368.5014,301.18573,366.23987,301.18573z"/>
			</g>
		</g>
	</g>
</g>
<g id="shape_27_">
	<g>
		<path fill-rule="evenodd" clip-rule="evenodd" fill="#C41212" d="M348.69519,274.97729
			c-7.4599,0-8.09009,15.98889-7.00647,17.07642c0.27429,0.27521,1.7666,0.93127,3.88568,1.77191
			c0.27612-6.68195,2.08289-12.08521,3.12079-12.82153c1.0755-0.7627,12.32349,5.79291,18.18512,11.59662
			c-0.05524-0.18683-0.11084-0.37292-0.16864-0.547C365.53381,288.50732,353.00879,274.97729,348.69519,274.97729z"/>
	</g>
</g>
<g>
	<path fill-rule="evenodd" clip-rule="evenodd" fill="#323A3C" d="M292.7821,399.21387l-0.75,2.11371v1.77271
		c0,0,3.30676,6.34088,5.86371,10.94318c2.55676,4.60236-2.27972-7.34247-2.27972-7.34247L292.7821,399.21387z"/>
</g>
<g>
	<path fill-rule="evenodd" clip-rule="evenodd" fill="#323A3C" d="M146,410.625c0,0,2.9375-5.1875,4.82813-9.65619
		c1.89063-4.46881,2.82813-13.80402,2.82813-13.80402l-3.125,10.74152L146,410.625z"/>
</g>
<g id="shape_12_">
	<g id="shape_13_">
		<g>
			<g>
				<path fill-rule="evenodd" clip-rule="evenodd" fill="#FFFFFF" d="M221,332.24988c-20.81543,0-37.75,16.93463-37.75,37.75
					c0,20.81543,16.93457,37.75,37.75,37.75s37.75-16.93457,37.75-37.75C258.75,349.18451,241.81543,332.24988,221,332.24988z"/>
			</g>
		</g>
		<g>
			<g>
				<path fill="#323A3C" d="M221,330.99988c-21.53912,0-39,17.46094-39,39c0,21.53912,17.46088,39,39,39s39-17.46088,39-39
					C260,348.46082,242.53912,330.99988,221,330.99988z M221,406.49988c-20.1261,0-36.5-16.3739-36.5-36.5
					c0-20.12616,16.3739-36.5,36.5-36.5c20.12622,0,36.5,16.37384,36.5,36.5C257.5,390.12598,241.12622,406.49988,221,406.49988z"/>
			</g>
		</g>
	</g>
</g>
<g id="_x31_0">
	<g>
		<path fill-rule="evenodd" clip-rule="evenodd" fill="#323A3C" d="M239.2679,383.3905h-0.375V347.703
			c0-1.49991-0.75-2.25-2.25-2.25h-4.5937c-1.47899,0-2.2188,0.75009-2.2188,2.25v44.59381c0,1.5,0.73981,2.25,2.2188,2.25h3.4375
			c0.25,0,0.51071-0.05231,0.7812-0.15631l3.7813-1.375c0.95851-0.396,1.4375-1.10449,1.4375-2.125v-5.28119
			C241.48669,384.12979,240.74741,383.3905,239.2679,383.3905z M217.26331,345.453h-9.625
			c-2.39551,0-4.51561,0.90091-6.3593,2.70309c-1.84381,1.80179-2.7657,3.922-2.7657,6.3595v30.96872
			c0,2.39548,0.92729,4.50479,2.7813,6.32809c1.85449,1.82269,3.9687,2.73441,6.3437,2.73441h9.5625
			c2.41699,0,4.54199-0.91171,6.375-2.73441c1.8335-1.8233,2.75-3.93262,2.75-6.32809v-31.03122
			c0-2.41699-0.9062-4.52109-2.7187-6.31259C221.7946,346.3486,219.6803,345.453,217.26331,345.453z M217.26331,385.48431h-9.6875
			v-30.96872h9.6875V385.48431z"/>
	</g>
</g>
</svg>
