<?xml version="1.0" encoding="utf-8"?>
<!-- Generator: Adobe Illustrator 17.0.0, SVG Export Plug-In . SVG Version: 6.00 Build 0)  -->
<!DOCTYPE svg PUBLIC "-//W3C//DTD SVG 1.1//EN" "http://www.w3.org/Graphics/SVG/1.1/DTD/svg11.dtd">
<svg version="1.1" id="car_23_1_" xmlns="http://www.w3.org/2000/svg" xmlns:xlink="http://www.w3.org/1999/xlink" x="0px" y="0px"
	 width="440px" height="680px" viewBox="0 0 440 680" enable-background="new 0 0 440 680" xml:space="preserve">
<g id="shape">
	<g id="shape_43_">
		<g>
			<g>
				<path fill-rule="evenodd" clip-rule="evenodd" fill="#D17937" d="M147,609.5c-0.81689,0-1.54346,0.39355-2,1.00201
					c-0.45654-0.60846-1.18311-1.00201-2-1.00201h-4c-0.81689,0-1.54346,0.39355-2,1.00201
					c-0.45648-0.60846-1.18311-1.00201-2-1.00201h-4c-1.37836,0-2.5,1.12109-2.5,2.5v7c0,1.37891,1.12164,2.5,2.5,2.5h4
					c0.81689,0,1.54352-0.39362,2-1.00201c0.45654,0.6084,1.18311,1.00201,2,1.00201h4c0.81689,0,1.54346-0.39362,2-1.00201
					c0.45654,0.6084,1.18311,1.00201,2,1.00201h4c1.37842,0,2.5-1.12109,2.5-2.5v-7c0-1.37891-1.12158-2.5-2.5-2.5H147z"/>
				<path fill-rule="evenodd" clip-rule="evenodd" fill="#D17937" d="M292,621.5c0.81738,0,1.54388-0.39362,2-1.00201
					c0.45612,0.6084,1.18262,1.00201,2,1.00201h4c0.81738,0,1.54388-0.39362,2-1.00201c0.45612,0.6084,1.18262,1.00201,2,1.00201h4
					c1.37891,0,2.5-1.12109,2.5-2.5v-7c0-1.37891-1.12109-2.5-2.5-2.5h-4c-0.81738,0-1.54388,0.39355-2,1.00201
					c-0.45612-0.60846-1.18262-1.00201-2-1.00201h-4c-0.81738,0-1.54388,0.39355-2,1.00201
					c-0.45612-0.60846-1.18262-1.00201-2-1.00201h-4c-1.37891,0-2.5,1.12109-2.5,2.5v7c0,1.37891,1.12109,2.5,2.5,2.5H292z"/>
			</g>
		</g>
		<g>
			<g>
				<path fill="#323A3C" d="M147,607.99976c-0.72803,0-1.41132,0.19562-2,0.5368c-0.58868-0.34119-1.27197-0.5368-2-0.5368h-4
					c-0.72797,0-1.41125,0.19562-2,0.5368c-0.58868-0.34119-1.27197-0.5368-2-0.5368h-4c-2.20557,0-4,1.79443-4,4v7
					c0,2.20563,1.79443,4,4,4h4c0.72803,0,1.41132-0.1955,2-0.53674c0.58875,0.34125,1.27203,0.53674,2,0.53674h4
					c0.72803,0,1.41132-0.1955,2-0.53674c0.58868,0.34125,1.27197,0.53674,2,0.53674h4c2.20563,0,4-1.79437,4-4v-7
					c0-2.20557-1.79437-4-4-4H147z M136,618.99976c0,0.55243-0.44781,1-1,1h-4c-0.55237,0-1-0.44757-1-1v-7c0-0.55219,0.44763-1,1-1
					h4c0.55219,0,1,0.44781,1,1V618.99976z M144,618.99976c0,0.55243-0.44781,1-1,1h-4c-0.55237,0-1-0.44757-1-1v-7
					c0-0.55219,0.44763-1,1-1h4c0.55219,0,1,0.44781,1,1V618.99976z M152,611.99976v7c0,0.55243-0.44781,1-1,1h-4
					c-0.55237,0-1-0.44757-1-1v-7c0-0.55219,0.44763-1,1-1h4C151.55219,610.99976,152,611.44757,152,611.99976z"/>
				<path fill="#323A3C" d="M292,622.99976c0.72803,0,1.41132-0.1955,2-0.53674c0.58868,0.34125,1.27197,0.53674,2,0.53674h4
					c0.72803,0,1.41132-0.1955,2-0.53674c0.58868,0.34125,1.27197,0.53674,2,0.53674h4c2.20557,0,4-1.79437,4-4v-7
					c0-2.20557-1.79443-4-4-4h-4c-0.72803,0-1.41132,0.19562-2,0.5368c-0.58868-0.34119-1.27197-0.5368-2-0.5368h-4
					c-0.72803,0-1.41132,0.19562-2,0.5368c-0.58868-0.34119-1.27197-0.5368-2-0.5368h-4c-2.20563,0-4,1.79443-4,4v7
					c0,2.20563,1.79437,4,4,4H292z M303,611.99976c0-0.55219,0.44757-1,1-1h4c0.55219,0,1,0.44781,1,1v7c0,0.55243-0.44781,1-1,1h-4
					c-0.55243,0-1-0.44757-1-1V611.99976z M295,611.99976c0-0.55219,0.44757-1,1-1h4c0.55219,0,1,0.44781,1,1v7
					c0,0.55243-0.44781,1-1,1h-4c-0.55243,0-1-0.44757-1-1V611.99976z M287,618.99976v-7c0-0.55219,0.44757-1,1-1h4
					c0.55219,0,1,0.44781,1,1v7c0,0.55243-0.44781,1-1,1h-4C287.44757,619.99976,287,619.55219,287,618.99976z"/>
			</g>
		</g>
	</g>
</g>
<g id="shape_1_">
	<g id="shape_42_">
		<g>
			<g>
				<path fill-rule="evenodd" clip-rule="evenodd" fill="#D8E1E6" d="M225.85248,615c0-3.58405-2.84955-6.5-6.35248-6.5
					s-6.35303,2.91595-6.35303,6.5c0,3.58398,2.8501,6.5,6.35303,6.5S225.85248,618.58398,225.85248,615z"/>
			</g>
		</g>
		<g>
			<g>
				<path fill="#323A3C" d="M227.35291,614.99976c0-4.41119-3.52271-8-7.85291-8s-7.85309,3.58881-7.85309,8
					c0,4.41125,3.52289,8,7.85309,8S227.35291,619.41101,227.35291,614.99976z M214.64691,614.99976c0-2.76135,2.17279-5,4.85309-5
					c2.68018,0,4.85291,2.23865,4.85291,5c0,2.76154-2.17273,5-4.85291,5
					C216.8197,619.99976,214.64691,617.76129,214.64691,614.99976z"/>
			</g>
		</g>
	</g>
</g>
<g id="shape_2_">
	<g id="shape_41_">
		<g>
			<g>
				<path fill-rule="evenodd" clip-rule="evenodd" fill="#26758D" d="M121.5,148.5c0-19.87598-4.90668-41-14-41
					c-9.09326,0-14,21.12402-14,41s4.90674,41,14,41C116.59332,189.5,121.5,168.37598,121.5,148.5z"/>
				<path fill-rule="evenodd" clip-rule="evenodd" fill="#26758D" d="M111.5,526.5c9.09332,0,14-21.12402,14-41
					c0-19.87604-4.90668-41-14-41c-9.09326,0-14,21.12396-14,41C97.5,505.37598,102.40674,526.5,111.5,526.5z"/>
				<path fill-rule="evenodd" clip-rule="evenodd" fill="#26758D" d="M328.5,526.5c9.09381,0,14-21.12402,14-41
					c0-19.87604-4.90619-41-14-41c-9.09369,0-14,21.12396-14,41C314.5,505.37598,319.40631,526.5,328.5,526.5z"/>
				<path fill-rule="evenodd" clip-rule="evenodd" fill="#26758D" d="M332.5,189.5c9.09381,0,14-21.12402,14-41s-4.90619-41-14-41
					c-9.09369,0-14,21.12402-14,41S323.40631,189.5,332.5,189.5z"/>
			</g>
		</g>
		<g>
			<g>
				<path fill="#323A3C" d="M328.5,527.99988c10.1759,0,15.5-21.38031,15.5-42.5c0-21.11981-5.3241-42.5-15.5-42.5
					s-15.5,21.38019-15.5,42.5C313,506.61957,318.3241,527.99988,328.5,527.99988z M328.5,445.99988
					c6.9035,0,12.5,17.68469,12.5,39.5c0,21.81519-5.5965,39.5-12.5,39.5c-6.90363,0-12.5-17.68481-12.5-39.5
					C316,463.68457,321.59637,445.99988,328.5,445.99988z"/>
				<path fill="#323A3C" d="M111.5,527.99988c10.1759,0,15.5-21.38031,15.5-42.5c0-21.11981-5.3241-42.5-15.5-42.5
					s-15.5,21.38019-15.5,42.5C96,506.61957,101.3241,527.99988,111.5,527.99988z M111.5,445.99988
					c6.9035,0,12.5,17.68469,12.5,39.5c0,21.81519-5.5965,39.5-12.5,39.5c-6.90356,0-12.5-17.68481-12.5-39.5
					C99,463.68457,104.59644,445.99988,111.5,445.99988z"/>
				<path fill="#323A3C" d="M332.5,190.99988c10.1759,0,15.5-21.38025,15.5-42.5s-5.3241-42.5-15.5-42.5s-15.5,21.38025-15.5,42.5
					S322.3241,190.99988,332.5,190.99988z M332.5,108.99988c6.9035,0,12.5,17.68494,12.5,39.5c0,21.81525-5.5965,39.5-12.5,39.5
					c-6.90363,0-12.5-17.68475-12.5-39.5C320,126.68481,325.59637,108.99988,332.5,108.99988z"/>
				<path fill="#323A3C" d="M123,148.49988c0-21.11975-5.3241-42.5-15.5-42.5s-15.5,21.38025-15.5,42.5s5.3241,42.5,15.5,42.5
					S123,169.61963,123,148.49988z M95,148.49988c0-21.81506,5.59644-39.5,12.5-39.5c6.9035,0,12.5,17.68494,12.5,39.5
					c0,21.81525-5.5965,39.5-12.5,39.5C100.59644,187.99988,95,170.31512,95,148.49988z"/>
			</g>
		</g>
	</g>
</g>
<g id="shape_3_">
	<g id="shape_40_">
		<g>
			<g>
				<path fill-rule="evenodd" clip-rule="evenodd" fill="#26758D" d="M103.75049,75.4082C102.62299,79.30524,100,89.30762,100,98
					c0,13.28223,2.97021,416.93848,3,421c0,2.25781,10.09863,88.64648,11.02643,94.32227
					C114.69293,617.40326,115.93463,625,121.4375,625c2.19531,0,3.62354-2.24023,5.43213-5.0752
					c1.01959-1.59863,3.14111-4.9248,4.22406-4.9248h177.81262c1.08301,0,3.2041,3.32617,4.22357,4.92377
					c1.80859,2.836,3.2373,5.07623,5.43262,5.07623c5.50287,0,6.74408-7.59674,7.41107-11.67773
					C326.90137,607.64648,337,521.25781,337,519.01459c0.03027-4.07611,3-407.73236,3-421.01459
					c0-8.69238-2.62299-18.69476-3.75-22.5918C332.37012,62,330.09381,62,329,62h-45.21002C269.53418,55.73444,246.11432,52,221,52
					h-2c-25.11432,0-48.53418,3.73444-62.79053,10H111C109.90619,62,107.63043,62,103.75049,75.4082z"/>
			</g>
		</g>
		<g>
			<g>
				<path fill="#323A3C" d="M105.00439,65.80389c-1.03577,2.3382-2.16345,5.5517-3.17529,9.04852
					c-1.15131,3.97882-3.82916,14.19928-3.82916,23.14746c0,13.28955,2.97015,416.95349,3.00018,421.02948
					c-0.00018,1.58002,3.2793,29.79584,5.23419,46.47174c2.50458,21.36749,5.3938,45.54749,5.81799,48.14362
					c0.70813,4.3349,2.18201,13.35504,9.38513,13.35504c3.29187,0,5.15088-2.91455,7.1189-6.00037
					c0.76489-1.1991,2.14319-3.36011,2.94836-3.99969h176.99048c0.80524,0.63959,2.18353,2.8006,2.94843,3.99969
					c1.96802,3.08582,3.82697,6.00037,7.11877,6.00037c7.20325,0,8.677-9.02014,9.38519-13.35504
					c0.42419-2.59613,3.31335-26.77612,5.81805-48.14362c1.95477-16.6759,5.23425-44.89172,5.23425-46.50122
					c0.02991-4.04651,3-407.71045,3-421c0-8.94818-2.6778-19.16864-3.8291-23.14746
					c-1.0119-3.49683-2.13947-6.71033-3.17535-9.04852c-1.24402-2.80817-2.83582-5.80402-5.99554-5.80402h-44.79315
					c-14.53363-6.26978-38.05615-9.99976-63.20685-9.99976l-0.65027,0.00256l-0.36572,0.00201l-0.33356-0.00201l-0.65045-0.00256
					c-25.15057,0-48.67316,3.72998-63.20673,9.99976h-44.79321C107.84033,59.99988,106.24841,62.99573,105.00439,65.80389z
					 M156.63324,63.99988c13.45465-6.02948,36.36407-9.99976,62.36664-9.99976c0.33472,0,0.6665,0.0033,1,0.00458
					c0.3335-0.00128,0.66541-0.00458,1-0.00458c26.00275,0,48.91205,3.97028,62.3667,9.99976h45.6333c2.20923,0,9,20.57153,9,34
					c0,13.42853-3,421-3,421c0,2.20923-10.21881,89.21881-11,93.99982c-0.78107,4.78137-1.9375,10-5.4375,10
					c-2.47906,0-5.74231-10-9.65607-10H131.09363c-3.91382,0-7.177,10-9.65619,10c-3.5,0-4.65631-5.21863-5.4375-10
					c-0.78113-4.78101-11-91.79059-11-93.99982c0,0-3-407.57147-3-421c0-13.42847,6.79089-34,9-34H156.63324z"/>
			</g>
		</g>
	</g>
</g>
<g id="shape_4_">
	<g>
		<path fill-rule="evenodd" clip-rule="evenodd" fill="#7ECFE2" d="M116.17682,71.03711
			c0,109.16681,2.55841,473.05566,3.11639,551.12897c0.59833,0.52563,1.302,0.83368,2.14429,0.83368
			c2.47913,0,5.74231-10,9.65613-10h177.81268c3.91376,0,7.177,10,9.65607,10c0.41223,0,0.78943-0.07788,1.13983-0.2135
			c0.54871-76.69574,3.12036-442.06964,3.12036-551.65253c0-2.10632-0.73718-4.55475-1.92065-7.13385h-37.53534
			C269.91199,57.97034,247.00262,54,220.99988,54c-0.33459,0-0.66638,0.00342-0.99988,0.0047
			C219.66638,54.00342,219.33459,54,219,54c-26.00269,0-48.91211,3.97034-62.3667,9.99988h-38.58368
			C116.89294,66.53888,116.17682,68.95129,116.17682,71.03711z M285,73c0-0.55237,0.44757-1.00012,1-1.00012h4
			c0.55219,0,1,0.44775,1,1.00012l1,5c0,0.55219-0.44781,1-1,1l-5,0.99988c-0.55243,0-1-0.44769-1-0.99988V73z M148,73
			c0-0.55237,0.44763-1.00012,1-1.00012h4c0.55225,0,1,0.44775,1,1.00012v6c0,0.55219-0.44775,0.99988-1,0.99988L148,79
			c-0.55237,0-1-0.44781-1-1L148,73z"/>
	</g>
</g>
<g id="shape_5_">
	<g>
		<path fill-rule="evenodd" clip-rule="evenodd" fill="#26758D" d="M151,308.99988c3-1.50006-18-44.24988-20-46c-2-1.75-5,11-5,11
			l1,3l-1,164l-6.89771,84.41388L115,525.99988l2,6.99988l3.77643-6.04218l99.21649,0.04218H220l98.53217-0.04187L323,534.99976
			l4-11.99988l-6.15552,2.05182l-6.86719-84.13281l-0.99988-164.15411l0.99988-3.00287c0,0-2.99951-12.76202-4.99921-11.01031
			c-1.99957,1.75159-22.99622,44.54169-19.9967,46.04309c1.3537,0.67773-18.57257-2.77277-40.8009-6.46436
			c0.44879-4.17651,0.74524-6.84741,0.81952-7.33044c0.17572-1.14197-12.2486,0.43384-28.30231,2.89154
			c-16.72571-2.58264-29.88068-4.28589-29.69989-3.10974c0.07672,0.49945,0.38977,3.32953,0.86371,7.75073
			C169.60779,306.22388,149.64502,309.67731,151,308.99988z M286.90601,309.8045c3.40826,0.44568,6.09399,2.91321,6.0061,5.4566
			c-1.41821,40.98047-2.82263,105.3949-4.07642,141.69348c-0.07788,2.25287-2.74609,4.04529-5.9649,4.01068
			c-42.03448-0.52881-84.70721-0.52881-126.74176,0c-3.21875,0.03461-5.88696-1.75781-5.96484-4.01068
			c-1.25378-36.29858-2.6582-100.71301-4.07642-141.69348c-0.08777-2.5434,2.59778-5.01093,6.0061-5.4566
			C196.79968,303.99988,242.2002,303.99988,286.90601,309.8045z"/>
	</g>
</g>
<g id="shape_6_">
	<g>
		<path fill-rule="evenodd" clip-rule="evenodd" fill="#FFFFFF" d="M213,54.07379c-5.88373,0.13983-11.57709,0.48163-17,1.00543
			v405.92065h17V54.07379z"/>
		<rect x="196" y="526.99976" fill-rule="evenodd" clip-rule="evenodd" fill="#FFFFFF" width="17" height="86"/>
		<rect x="226" y="526.99976" fill-rule="evenodd" clip-rule="evenodd" fill="#FFFFFF" width="17" height="86"/>
		<path fill-rule="evenodd" clip-rule="evenodd" fill="#FFFFFF" d="M243,54.98651c-5.43103-0.49939-11.12152-0.8205-17-0.93658
			v406.94995h17V54.98651z"/>
	</g>
</g>
<g id="shape_7_">
	<g>
		<path fill-rule="evenodd" clip-rule="evenodd" fill="#323A3C" d="M279.37048,62.37231L284,116.99988l-1.75372-53.48596
			C281.32648,63.12433,280.36902,62.7431,279.37048,62.37231z"/>
		<path fill-rule="evenodd" clip-rule="evenodd" fill="#323A3C" d="M159.59595,62.76752
			c-0.99286,0.38599-1.94751,0.78119-2.85675,1.18646L155,116.99988L159.59595,62.76752z"/>
	</g>
</g>
<g id="shape_8_">
	<g>
		<path fill="none" stroke="#323A3C" stroke-width="2" stroke-miterlimit="100" d="M135.98834,535.99976v79h167.02338v-79
			c0-2.20898-1.79083-3.99988-4-3.99988H139.98834C137.77911,531.99988,135.98834,533.79077,135.98834,535.99976z"/>
	</g>
</g>
<g>
	<path fill="#323A3C" d="M147.89844,462.55664c0,0-19.84277,45.33984-29.81396,68.04102l1.83105,0.80469
		c9.97119-22.70313,29.81494-68.04297,29.81641-68.04688c0.16992-0.3916,0.67725-0.70801,0.9834-0.70801H288.6377
		c0.30664,0,0.81348,0.31641,0.98535,0.71289c0.20215,0.45801,20.24023,46.1123,29.45508,68.02734l1.84375-0.77539
		c-9.2207-21.92969-29.26563-67.59766-29.46582-68.05273c-0.47266-1.08984-1.68457-1.91211-2.81836-1.91211H150.71533
		C149.58105,460.64746,148.36963,461.46973,147.89844,462.55664z"/>
</g>
<g id="shape_10_">
	<g>
		<polygon fill-rule="evenodd" clip-rule="evenodd" fill="#323A3C" points="120,530.99988 118,530.99988 119,600.99976 		"/>
		<polygon fill-rule="evenodd" clip-rule="evenodd" fill="#323A3C" points="319,530.99988 320,600.99976 321,530.99988 		"/>
	</g>
</g>
<g id="shape_11_">
	<g id="shape_32_">
		<g>
			<g>
				<path fill="#323A3C" d="M131.10303,222.60809c-0.09241,1.19324,0.54486,2.03729,1.46777,2.03729
					c0.10553,0,0.2146-0.01111,0.3269-0.03375c28.57751-5.78052,57.58978-8.67072,86.60217-8.67072
					c29.01245,0,58.02484,2.8902,86.60229,8.67072c0.11224,0.02264,0.2215,0.03375,0.3269,0.03375
					c0.92303,0,1.56024-0.84399,1.46783-2.03729c-4.24231-54.68701-8.53564-108.47961-12.85254-161.60822h-11.6778
					C269.91199,54.97034,247.00262,51,220.99988,51c-0.33459,0-0.66638,0.00342-0.99988,0.0047
					C219.66638,51.00342,219.33459,51,219,51c-26.00269,0-48.91211,3.97034-62.3667,9.99988h-12.6778
					C139.63861,114.12848,135.34521,167.92108,131.10303,222.60809z M156.6333,62.99988h0.42761l0.39032-0.17487
					C171.1792,56.67291,194.18817,53,219,53l0.60291,0.00262l0.40479,0.00208l0.38922-0.00208L220.99988,53
					c24.81183,0,47.8208,3.67291,61.54883,9.82501l0.3902,0.17487h0.42767h9.83374
					c4.62708,56.97009,8.77795,109.17505,12.68427,159.52765c-28.37988-5.69812-57.4389-8.58661-86.3847-8.58661
					c-28.94397,0-58.00519,2.88898-86.38458,8.58661c3.90631-50.35291,8.05719-102.55756,12.68433-159.52765H156.6333z"/>
			</g>
		</g>
	</g>
</g>
<g>
	<path fill="#323A3C" d="M102,259v2h14.9292c0.86475,0.21826,6.04004,2.64014,10.62939,4.89746l0.88281-1.79492
		C118.06543,259,117.26367,259,117,259H102z"/>
</g>
<g>
	<path fill="#323A3C" d="M338,261.01709v-2h-15.66211c-0.26172,0-1.05664,0-11.30176,5.17578l0.90234,1.78516
		c4.51465-2.28076,9.6084-4.73096,10.47461-4.96094H338z"/>
</g>
<g id="shape_14_">
	<g id="shape_13_">
	</g>
</g>
<g id="shape_15_">
	<g id="shape_12_">
	</g>
</g>
<g id="shape_16_">
	<g id="shape_9_">
		<g>
			<g>
				<path fill-rule="evenodd" clip-rule="evenodd" fill="#323A3C" d="M131.59863,265.12402
					c2.0918,6.23151,4.70459,13.58246,7.23096,20.69086c2.68896,7.565,5.46924,15.3877,7.69629,22.06213
					c0.3457,1.02441,1.49707,1.8266,2.62061,1.8266c0.11914,0,0.23828-0.00934,0.35059-0.02734
					c23.39844-3.86914,46.95074-5.83105,70.00293-5.83105c23.05182,0,46.60449,1.96191,69.99707,5.83008
					c0.1181,0.01898,0.2373,0.02832,0.35645,0.02832c1.12311,0,2.27435-0.80219,2.61816-1.81934
					c2.22852-6.67865,5.00684-14.49707,7.69434-22.05811c2.52826-7.11279,5.14258-14.46729,7.2373-20.70996
					c0.3067-0.90143-0.49512-2.30322-2.13873-2.87549c-27.33301-9.55713-56.18842-14.40234-85.76459-14.40234
					c-29.57672,0-58.43213,4.84521-85.76709,14.40283C132.0918,262.8125,131.28961,264.21533,131.59863,265.12402z"/>
			</g>
		</g>
		<g>
			<g>
				<path fill="#323A3C" d="M129.70264,265.76019c4.31079,12.84369,10.59906,29.7807,14.92834,42.75708
					c0.63263,1.8728,2.56506,3.18622,4.51648,3.18622c0.22577,0,0.45172-0.01752,0.67596-0.05377
					c23.40027-3.86951,46.53839-5.80432,69.67645-5.80432c23.13824,0,46.27631,1.93481,69.67651,5.80432
					c0.22418,0.03625,0.45038,0.05377,0.67603,0.05377c1.9516,0,3.88379-1.31329,4.51648-3.18622
					c4.32928-12.97638,10.61749-29.91339,14.92841-42.75708c0.70258-2.06647-0.8009-4.5119-3.37268-5.4079
					c-27.67462-9.67621-57.04962-14.51428-86.42474-14.51428c-29.375,0-58.75,4.83807-86.42456,14.51428
					C130.50342,261.24829,128.99994,263.69373,129.70264,265.76019z M134.39563,264.12817
					c27.11957-9.4823,55.75275-14.29016,85.10425-14.29016c29.35175,0,57.98492,4.80786,85.1087,14.29169
					c0.47369,0.16492,0.72223,0.4317,0.82153,0.58118c-2.07373,6.16833-4.65192,13.42175-7.14594,20.4389
					c-2.69147,7.57245-5.47479,15.40265-7.7049,22.08722c-0.06738,0.1994-0.43896,0.46649-0.75018,0.46631
					c-23.50598-3.88702-47.16821-5.85791-70.32922-5.85791c-23.16095,0-46.82306,1.97089-70.35242,5.85809
					c-0.2879,0-0.65948-0.26697-0.72211-0.45209c-2.23492-6.69897-5.01813-14.52917-7.70966-22.10162
					c-2.49219-7.01196-5.06818-14.25916-7.14587-20.4389C133.66931,264.5614,133.91852,264.29431,134.39563,264.12817z"/>
			</g>
		</g>
	</g>
</g>
<g id="shape_17_">
	<g>
		<path fill-rule="evenodd" clip-rule="evenodd" fill="#4C5B5F" d="M290.38568,307.99597h0.00049
			c0.3114,0,0.68311-0.26746,0.75043-0.46716c2.19812-6.59808,4.93262-14.30859,7.58807-21.79022
			c-0.56067-0.92078-1.40979-1.69977-2.4975-2.1275c-25.65326-9.81946-54.35217-14.37848-82.8374-13.68866
			c-0.12195,0.32489-0.26135,0.65289-0.42035,0.98315l-2.4223,5.03021c-1.79272,3.72302-6.28503,6.6308-10.26685,6.97888
			l-39.65259,3.46643c-3.98169,0.34802-9.2854-1.70361-12.22864-5.01251l-0.09485-0.10669
			c-2.19507,0.75043-4.3775,1.52472-6.53149,2.34918c-0.38086,0.14972-0.72339,0.35309-1.04645,0.57874
			c0.1424,0.40106,0.28516,0.80371,0.42712,1.20355c2.69348,7.58881,5.47864,15.43616,7.71533,22.14966
			c0.06262,0.18555,0.43457,0.45325,0.72272,0.45325c18.44739-3.05206,36.97278-4.90735,55.2782-5.57581
			c-0.12854-0.53607-0.13873-1.1214,0.00757-1.7323l0.2384-0.99506c0.50128-2.09393,2.66571-3.6933,4.86292-3.6933h20.8877
			c2.19739,0,4.36169,1.59937,4.86298,3.6933l0.23834,0.99506c0.14874,0.6214,0.13379,1.21521-0.00134,1.75861
			C253.99847,303.14117,272.23743,304.9906,290.38568,307.99597z"/>
	</g>
</g>
<g id="wheel">
	<g id="wheel_3_">
		<g>
			<g>
				<path fill="#323A3C" d="M181.61572,294.89142c0.26825,0,0.53607-0.00281,0.80658-0.0083
					c12.77289-0.26263,23.16217-6.69153,23.2052-14.35944c0.04187-7.50519-9.8465-13.41595-22.2439-13.41595
					c-0.26819,0-0.53558,0.00269-0.80609,0.0083c-12.77301,0.2627-23.16217,6.69159-23.20526,14.35925
					C159.33038,288.98071,169.21838,294.89142,181.61572,294.89142z M182.68091,272.11493
					c0.2359-0.00494,0.46881-0.0072,0.7027-0.0072c6.54327,0,12.50488,1.90747,15.55847,4.97815
					c1.12469,1.13092,1.69183,2.2782,1.68555,3.40985c-0.02393,4.2547-7.85852,9.17358-18.30884,9.38837
					c-0.2359,0.005-0.46918,0.0072-0.70306,0.0072c-6.54321,0-12.50464-1.90741-15.55811-4.97778
					c-1.12469-1.1311-1.69171-2.27844-1.68555-3.41003C164.39612,277.24878,172.23077,272.3299,182.68091,272.11493z"/>
			</g>
		</g>
	</g>
</g>
<g id="wheel_1_">
	<g>
		<path fill-rule="evenodd" clip-rule="evenodd" fill="#323A3C" d="M190.83679,280.77667
			c-0.16309-2.81696-4.02802-4.77686-8.6322-4.37775c-4.60437,0.39929-8.20459,3.00665-8.0415,5.82379
			c0.14429,2.49329,3.19031,4.31177,7.08051,4.42065c0.93109,2.59711,1.09503,5.29474-0.24359,6.35645
			c-1.8125,1.43726,10.25-1.25024,9-2c-0.87323-0.52399-2.505-3.1814-3.04962-5.46124
			C189.37347,284.43939,190.94568,282.65668,190.83679,280.77667z"/>
	</g>
</g>
<g id="shape_18_">
	<g>
		<path fill-rule="evenodd" clip-rule="evenodd" fill="#323A3C" d="M125,269.99988c-1.83337,0-2,50.66675-2,85
			c0,34.33331,1.5,87,3,87c1.13623,0,11.44702-11.56488,16.3844-17.53979L147,453.99988l-2-33c0-0.83331-2.5-103.33325-3-108
			C141.5,308.33331,126.83331,269.99988,125,269.99988z"/>
		<path fill-rule="evenodd" clip-rule="evenodd" fill="#323A3C" d="M313,441.99988c1.5,0,3-52.66669,3-87
			c0-34.33325-0.16669-85-2-85c-1.83337,0-16.5,38.33344-17,43c-0.5,4.66675-3,107.16669-3,108l-2,33l4.6156-29.53979
			C301.55298,430.435,311.86377,441.99988,313,441.99988z"/>
	</g>
</g>
<g id="shape_19_">
	<g id="shape_24_">
		<g>
			<g>
				<path fill="#323A3C" d="M124,276.99988l9.07544-16.64758C130.50342,261.24823,124,265.47412,124,276.99988z"/>
			</g>
		</g>
	</g>
</g>
<g>
	<path fill-rule="evenodd" clip-rule="evenodd" fill="none" stroke="#323A3C" stroke-width="2" stroke-miterlimit="100" d="
		M305.32581,261.12381"/>
</g>
<g>
	<path fill="#323A3C" d="M313.15625,276.625c0,0.55225,0.44727,1,1,1s1-0.44775,1-1c0-11.79688-6.35352-15.28418-9.08496-16.23584
		c-0.52344-0.18262-1.0918,0.09326-1.27344,0.61523c-0.18164,0.52148,0.09375,1.0918,0.61523,1.27344
		C308.30469,263.28516,313.15625,266.48926,313.15625,276.625z"/>
</g>
<g id="shape_21_">
	<g>
		<path fill-rule="evenodd" clip-rule="evenodd" fill="#323A3C" d="M150.34802,473.53107l-19.95459,46.86401
			c-0.60913,1.43048-0.21509,2.6048,0.8877,2.6048h175.72198c1.10291,0,1.49689-1.17432,0.88776-2.6048l-19.95459-46.86401
			c-0.36157-0.8493-1.32996-1.53119-2.16626-1.53119H152.51416C151.67786,471.99988,150.70959,472.68176,150.34802,473.53107z"/>
	</g>
</g>
</svg>
