<?xml version="1.0" encoding="utf-8"?>
<!-- Generator: Adobe Illustrator 17.0.0, SVG Export Plug-In . SVG Version: 6.00 Build 0)  -->
<!DOCTYPE svg PUBLIC "-//W3C//DTD SVG 1.1//EN" "http://www.w3.org/Graphics/SVG/1.1/DTD/svg11.dtd">
<svg version="1.1" id="car_17_1_" xmlns="http://www.w3.org/2000/svg" xmlns:xlink="http://www.w3.org/1999/xlink" x="0px" y="0px"
	 width="440px" height="680px" viewBox="0 0 440 680" enable-background="new 0 0 440 680" xml:space="preserve">
<g id="shape">
	<g id="shape_55_">
		<g>
			<g>
				<path fill-rule="evenodd" clip-rule="evenodd" fill="#F8C403" d="M347,170c0-37.28607-19.33112-76.11127-48.10248-96.61182
					C276.37891,57.34283,248.06842,56,221,56c-26.94629,0-55.12061,1.31641-77.42041,17.04932
					C114.52252,93.5498,95,132.51123,95,170c0,25.99951,1.63232,65.42822,9.40924,105.61823
					c8.88715,45.9306,0.31488,101.16205-5.9444,141.49115c-2.89502,18.65228-5.39551,34.76172-5.54193,45.75104
					c-0.29742,22.84955-0.36871,46.04095-0.21198,68.93347c0.14355,17.23541,7.32867,35.97949,19.71289,51.4278
					c12.92236,16.11908,29.61182,26.58789,47.01904,29.48041c20.51361,3.13867,41.39252,4.72949,62.05713,4.72949
					c20.66412,0,41.54388-1.59082,62.08301-4.7334c17.38177-2.88861,34.07031-13.35742,46.99316-29.4765
					c12.3847-15.4483,19.56934-34.19238,19.71295-51.43073c0.15619-22.88959,0.0849-46.08099-0.21204-68.93054
					c-0.14838-11.11145-2.80762-27.43274-5.88672-46.33014c-6.53809-40.12109-15.49115-95.0694-6.63464-140.72845
					C345.36127,235.55658,347,196.05273,347,170z"/>
			</g>
		</g>
		<g>
			<g>
				<path fill="#323A3C" d="M348.99988,169.99982c0-37.90253-19.66797-77.38232-48.9411-98.24054
					c-23.00037-16.38806-51.66748-17.75946-79.0589-17.75946c-27.26709,0-55.79456,1.34467-78.57343,17.41541
					c-29.56354,20.85779-49.42651,60.47577-49.42651,98.58459c0,26.08667,1.63867,65.65198,9.4455,105.99847
					c8.82098,45.58838,0.27966,100.62134-5.95703,140.8045c-2.90662,18.72748-5.41681,34.90118-5.56506,46.0307
					c-0.29773,22.88599-0.36902,46.091-0.21204,68.97162c0.14703,17.6814,7.49213,36.87585,20.1521,52.66766
					c13.2309,16.50372,30.35791,27.22852,48.2262,30.19849l0.02551,0.00433l0.02551,0.00391
					c20.61298,3.15295,41.59369,4.75171,62.35925,4.75171c20.76575,0,41.7464-1.59875,62.35944-4.75171l0.02551-0.00391
					l0.02545-0.00433c17.86835-2.96997,34.9953-13.69476,48.22614-30.19849c12.65997-15.79181,20.00519-34.98627,20.15216-52.6618
					c0.15704-22.88647,0.08569-46.09149-0.21198-68.9762c-0.15002-11.26062-2.8205-27.64929-5.91248-46.62567
					c-6.51324-39.97266-15.43323-94.71698-6.6452-140.02661C347.3551,235.77948,348.99988,196.13928,348.99988,169.99982z
					 M348.0769,462.88678c0.29871,22.96252,0.36938,45.92719,0.21191,68.89081
					c-0.28705,34.50269-29.43042,73.02972-65.03442,78.94788c-20.50958,3.13721-41.13202,4.70575-61.75452,4.70575
					c-20.62238,0-41.24475-1.56854-61.75446-4.70575c-35.604-5.91815-64.74731-44.44519-65.0343-78.94788
					c-0.15753-22.96362-0.08679-45.92828,0.21179-68.89081c0.461-34.58978,24.49402-120.23309,11.44971-187.64825
					c-7.97998-41.2417-9.37268-81.76093-9.37268-105.23871c0-35.87933,18.67889-74.81824,47.73254-95.3161
					c21.03479-14.84039,47.50781-16.6839,76.2674-16.6839c28.97455,0,55.62793,1.97601,76.73773,17.01721
					c28.78479,20.51019,47.26227,59.2973,47.26227,94.98279c0,23.51251-1.39679,64.11652-9.40778,105.42096
					C322.52777,342.77881,347.61591,428.297,348.0769,462.88678z"/>
			</g>
		</g>
	</g>
</g>
<g id="shape_1_">
	<g>
		<path fill-rule="evenodd" clip-rule="evenodd" fill="#FFFFFF" d="M201.90771,58.42242
			c-2.8725,185.49469-2.8797,371.02234-0.02423,556.51715c5.69971,0.27521,11.40173,0.4325,17.10449,0.46771
			c-0.36725-185.78857-0.367-371.60986,0.00244-557.39838C213.19012,58.02759,207.48828,58.13861,201.90771,58.42242z"/>
		<path fill-rule="evenodd" clip-rule="evenodd" fill="#FFFFFF" d="M241.11627,614.93958
			c2.85541-185.47382,2.84845-370.98029-0.02319-556.45398c-5.578-0.3125-11.28186-0.44098-17.08356-0.47137
			c0.36926,185.78668,0.36969,371.60626,0.00226,557.39307C229.7146,615.37207,235.41669,615.21478,241.11627,614.93958z"/>
	</g>
</g>
<g id="shape_2_">
	<g>
		<path fill-rule="evenodd" clip-rule="evenodd" fill="#BC7500" d="M156,125.99982c0.8396,5.37396,0.2478,26.44189,1,41
			c0.6814,13.1889-1,26,0.67932,25.83209c1.67944-0.16791,25.90851-29.43512,29.26715-34.3053
			c3.35883-4.8703,5.03815-9.57263,6.04584-16.12219C194,135.85492,155.16028,120.62573,156,125.99982z"/>
		<path fill-rule="evenodd" clip-rule="evenodd" fill="#BC7500" d="M179,434.99988c-0.5-2.75012-3-11-3-11l-34,89.99988l4,58.00012
			c0,0,40.875-8.50012,42-9.00012s3,1.00012,4,4c1,3,4,12,4,12h3c0,0-8-35.375-12-54.99988
			C183,504.37488,179.5,437.74988,179,434.99988z"/>
		<path fill-rule="evenodd" clip-rule="evenodd" fill="#BC7500" d="M153.85254,69.22632
			c-3.13666,1.5943-6.18646,3.3877-9.12012,5.4574C115.67883,95.1817,97,134.12042,97,169.99982
			c0,23.47791,1.39264,63.99701,9.37262,105.23871c13.04431,67.41516-10.98871,153.05853-11.44958,187.64825
			c-0.29871,22.96259-0.36945,45.92719-0.21191,68.89081c0.15991,19.22528,9.28601,39.69348,23.4903,55.0799
			c-6.5813-46.6969-5.61963-124.00177-4.03113-125.59509c1.79382-1.79938,20.13123,39.38647,21.92505,38.98657
			c1.79388-0.39978,9.59119-24.99139,14.97278-38.98657C156.44971,447.26709,164,428.47339,164,393.28546
			c0-35.18799-7.97278-62.97864-7.97278-62.97864l-6.9762,2.99896c0,0-8.96936,48.18378-13.95221,21.99261
			c-4.98309-26.19122-19.1347-78.37341-23.91827-119.95929c-4.78363-41.58569-7.97272-84.771,2.98975-113.96118
			C123.3775,96.86182,146.63751,75.45508,153.85254,69.22632z"/>
		<path fill-rule="evenodd" clip-rule="evenodd" fill="#BC7500" d="M306,354.99988c-5,26.20001-14-22-14-22l-7-3
			c0,0-8,27.79993-8,63c0,35.19989,7.59998,54,13,67.99988c5.3999,14.00012,13.20001,38.60016,15,39.00012
			c1.79987,0.3999,20.20001-40.80011,22-39.00012c1.62292,1.62311,2.59399,81.77582-4.41431,128.1665
			c15.46222-15.6084,25.53497-37.18378,25.70313-57.38867c0.15747-22.96362,0.08679-45.92822-0.21191-68.89081
			c-0.46088-34.58972-25.54919-120.10809-12.48492-187.466C343.60309,234.11633,345,193.51239,345,169.99982
			c0-35.68542-18.47748-74.47272-47.26233-94.98279c-3.40979-2.42944-6.97839-4.48584-10.6637-6.28033
			c7.12061,6.11633,30.6438,27.62311,39.92603,52.26312c11,29.2002,7.79987,72.40009,3,114.00006
			C325.20001,276.59991,311,328.7998,306,354.99988z"/>
		<path fill-rule="evenodd" clip-rule="evenodd" fill="#BC7500" d="M285,129.99982c-0.16089-5.39563-37,5.50006-36,12
			c1,6.50006,2.66663,11.16669,6,16c3.33331,4.83337,27.33331,33.83337,29,34c1.66663,0.16669,1.1394-12.89429,1-26
			C284.83838,150.82568,285.25372,138.5108,285,129.99982z"/>
		<path fill-rule="evenodd" clip-rule="evenodd" fill="#BC7500" d="M246,578.99976c0,0,3-9,4-12c1-2.99988,2.875-4.5,4-4
			s42,9.00012,42,9.00012l4-58.00012l-34-89.99988c0,0-2.5,8.24988-3,11c-0.5,2.75-4,69.375-8,89
			c-4,19.62488-12,54.99988-12,54.99988H246z"/>
	</g>
</g>
<g>
	<path fill="#323A3C" d="M288.34473,334.45996L288,333l0.33105,1.46289L288,333l-0.33105-1.46289
		c-0.58398,0.13232-14.33887,3.56934-17.16211,32.31641c-2.75,28-6,60.99902-6,60.99902l-0.03516,0.35645l0.12988,0.33398
		c13.27637,34.16699,33.17188,85.9834,33.89648,89.53906c-0.07129,2.36328-2.48633,37.5752-6.48828,94.61133l2.99219,0.21094
		C296.95605,582.0625,301.5,517.08301,301.5,515c0-2.5-23.64844-63.63867-33.97168-90.20898
		c0.35742-3.63379,3.38184-34.34473,5.96484-60.64453C276.08301,337.77588,288.22266,334.48975,288.34473,334.45996z"/>
</g>
<g>
	<path fill="#323A3C" d="M146.37354,609.09863l2.99316-0.20898c-3.92725-56.09668-6.29639-90.73145-6.3667-93.06738
		c0.72314-3.55762,20.60449-55.4541,33.87158-89.67383l0.12939-0.33301l-0.03516-0.35547c0,0-3.24756-33.0498-5.99561-61.0918
		c-2.8208-28.78809-16.56494-32.23096-17.14844-32.36328l-0.67725,2.92236c0.12207,0.03027,12.25195,3.32178,14.84033,29.73389
		c2.58154,26.34277,5.60352,57.10449,5.96045,60.73633c-10.31494,26.60742-33.94678,87.84082-33.94678,90.34375
		C139.99854,517.80371,144.45703,581.71582,146.37354,609.09863z"/>
</g>
<g id="shape_5_">
	<g>
		<path fill-rule="evenodd" clip-rule="evenodd" fill="#323A3C" d="M142,513.99976l5,58.00012l39-8c0,0-13.20007-51-18-74.00012
			c-4.79999-22.99988,0-43.99988,0-43.99988L142,513.99976z"/>
		<path fill-rule="evenodd" clip-rule="evenodd" fill="#323A3C" d="M256,563.99988l39,8l5-58.00012l-26-67.99988
			c0,0,4.79993,21,0,43.99988C269.20001,512.99988,256,563.99988,256,563.99988z"/>
	</g>
</g>
<g>
	
		<rect x="310.87482" y="386.11432" transform="matrix(0.99123 -0.13217 0.13217 0.99123 -48.31337 46.37117)" fill="#323A3C" width="28.53452" height="1.99988"/>
</g>
<g>
	
		<rect x="116.22197" y="373.39447" transform="matrix(-0.13376 0.99101 -0.99101 -0.13376 516.58783 322.78439)" fill="#323A3C" width="2.0004" height="27.54113"/>
</g>
<g>
	<path fill="#BC7500" d="M221,106c21.14063,0,39,6.18213,39,13.5h2c0-8.69141-18.00977-15.5-41-15.5c-22.99072,0-41,6.80859-41,15.5
		h2C182,112.18213,199.85986,106,221,106z"/>
</g>
<g id="shape_9_">
	<g id="shape_46_">
		<g>
			<g>
				<path fill-rule="evenodd" clip-rule="evenodd" fill="#323A3C" d="M184.49463,526.06927
					c1.33545,2.30774,3.82129,6.60364,6.16357,6.64752C200.68701,532.89941,210.896,532.99408,221,533
					c10.10449-0.00592,20.3125-0.10059,30.33978-0.2832c2.34381-0.04388,4.8291-4.33893,6.1651-6.64551l0.32129-0.55371
					c1.2597-2.17188,9.39063-26.86328,11.80762-49.97168c2.11328-20.19342-3.26367-35.33984-5.28809-41.04199
					c-0.21191-0.59863-0.38873-1.0957-0.5166-1.48444c-1.63959-4.9433-4.50879-5.57416-6.52338-5.6181
					c-11.99915-0.25977-24.21393-0.39459-36.30475-0.40137c-12.09326,0.00677-24.30859,0.1416-36.30566,0.40039
					c-2.01514,0.04492-4.88379,0.67578-6.52344,5.61517c-0.12939,0.39264-0.30566,0.88971-0.51807,1.48834
					c-2.02393,5.70215-7.40039,20.84857-5.2876,41.04199c2.41797,23.11426,10.5484,47.80176,11.8042,49.96478L184.49463,526.06927z"
					/>
			</g>
		</g>
		<g>
			<g>
				<path fill="#323A3C" d="M190.62231,534.71661c10.125,0.18359,20.25128,0.27734,30.37781,0.28314
					c10.12616-0.0058,20.2525-0.09955,30.3775-0.28314c3.70459-0.06964,6.552-5.41431,8.17859-8.19635
					c1.62659-2.8031,9.69-28.04456,12.06671-50.76599c2.37689-22.71686-4.51935-39.19177-5.89563-43.36481
					c-1.37622-4.14728-3.94159-6.8905-8.37872-6.9881c-12.11487-0.26129-24.23169-0.39459-36.34845-0.40161
					c-12.11725,0.00702-24.23395,0.14032-36.34882,0.40161c-4.43713,0.0976-7.0025,2.84082-8.37872,6.9881
					c-1.37628,4.17303-8.27258,20.64795-5.89569,43.36481c2.37683,22.72144,10.44019,47.96289,12.06683,50.76599
					C184.07031,529.30231,186.91772,534.64697,190.62231,534.71661z M179.53918,435.17139
					c0.2182-0.61469,0.39923-1.1261,0.52979-1.52209c1.21814-3.67072,2.96454-4.2113,4.66852-4.24878
					c11.99982-0.25891,24.20032-0.39362,36.26263-0.40076c12.06207,0.00714,24.26245,0.14185,36.26056,0.40063
					c1.70569,0.0376,3.45209,0.57819,4.66791,4.242c0.13293,0.40289,0.3139,0.91431,0.5321,1.52899
					c1.98279,5.58533,7.24988,20.42188,5.1839,40.16681c-2.35577,22.52148-10.26471,46.80701-11.5415,49.16321l-0.33008,0.56818
					c-2.62213,4.53088-3.88232,5.57239-4.4679,5.64771c-10.01874,0.1817-20.21552,0.27667-30.30273,0.28247
					c-10.09198-0.0058-20.28888-0.10077-30.29785-0.28204c-0.59534-0.07574-1.85565-1.11725-4.47772-5.64813l-0.31403-0.54022
					c-1.29291-2.38416-9.20166-26.66968-11.5575-49.19128C172.28931,455.59326,177.5564,440.75671,179.53918,435.17139z"/>
			</g>
		</g>
	</g>
</g>
<g id="shape_10_">
	<g>
		<path fill-rule="evenodd" clip-rule="evenodd" fill="#4C5B5F" d="M189.14569,528.70508l-10.5282-89.89417
			c-2.16821,6.29547-6.24402,19.76746-4.41992,37.25226c2.19733,21.06891,9.6521,44.47461,11.15601,47.07391
			C186.2442,524.66467,187.53333,527.02008,189.14569,528.70508z"/>
		<path fill-rule="evenodd" clip-rule="evenodd" fill="#4C5B5F" d="M263.29468,438.5578l-10.41541,90.12128
			c1.60071-1.68317,2.8811-4.02222,3.76715-5.54199c1.50385-2.5993,8.95868-26.005,11.15594-47.07391
			C269.65192,458.33478,265.4375,444.737,263.29468,438.5578z"/>
	</g>
</g>
<g id="shape_11_">
	<g>
		<path fill-rule="evenodd" clip-rule="evenodd" fill="#323A3C" d="M337,408.99988l-21.60449,1l-1.03552,29
			c0,0,6.31519,10.0932,14.35553,10C333.65662,448.9425,336.82739,423.16638,337,408.99988z"/>
		<path fill-rule="evenodd" clip-rule="evenodd" fill="#323A3C" d="M113.28442,448.99988c6.23682,0,14.35547-10,14.35547-10
			l-1.03546-29l-21.60443-1C105.17249,423.16638,108.07294,448.99988,113.28442,448.99988z"/>
	</g>
</g>
<g>
	<path fill="#323A3C" d="M106.73584,423.77246C105.45605,411.38281,105,396.65332,105,387c0-0.55273-0.44775-1-1-1s-1,0.44727-1,1
		c0,10.35352,0.49707,62,10.30615,62c18.7041,0,37.65723-48.63281,38.45508-50.70313
		c0.19873-0.51563-0.05811-1.09375-0.57373-1.29199c-0.51514-0.2002-1.09424,0.05762-1.29248,0.57324
		C149.70459,398.07227,130.64746,447,113.30615,447C112.32764,447,108.96289,445.3252,106.73584,423.77246z"/>
</g>
<g>
	<path fill="#323A3C" d="M328.62793,450C332.65137,450,338,443.36523,338,386c0-0.55273-0.44727-1-1-1s-1,0.44727-1,1
		c0,55.95898-5.15527,62-7.37207,62c-17.44824,0-35.30469-49.83105-35.4834-50.33398
		c-0.18457-0.52051-0.75391-0.79199-1.27637-0.6084c-0.52051,0.18457-0.79297,0.75586-0.6084,1.27637
		C292.00684,400.44336,309.77637,450,328.62793,450z"/>
</g>
<g id="shape_14_">
	<g>
		<path fill-rule="evenodd" clip-rule="evenodd" fill="#323A3C" d="M271,151.99982c4.58331-1,16.33331-23,15-31
			c-1.33337-8-41.08337-20.83319-43-17c-1.91669,3.8335,7,44,7,44S266.41663,152.99982,271,151.99982z"/>
		<path fill-rule="evenodd" clip-rule="evenodd" fill="#323A3C" d="M191.13147,147.98419c0,0,8.86853-40.29346,6.96216-44.13885
			c-1.90625-3.84552-41.44141,9.02826-42.76758,17.05359C154,128.92413,165.6864,150.99359,170.245,151.9967
			S191.13147,147.98419,191.13147,147.98419z"/>
	</g>
</g>
<g id="shape_15_">
	<g id="shape_3_">
		<g>
			<g>
				<path fill-rule="evenodd" clip-rule="evenodd" fill="#4C5B5F" d="M290.28998,385.14258
					c0.22272,1.0224,0.46002,2.11523,0.70325,3.26849L292.5,395.5752l2.34473-6.93463
					c4.38867-12.9765,9.12598-37.79095,9.12598-55.25049v-0.0708l5.02441-70.87195L309,262.30219
					c-0.03613-22.12891-8.60059-40.95941-24.7666-54.45447C268.90137,195.04883,247.51563,188,224.01758,188h-6.03516
					c-23.49854,0-44.8833,7.04883-60.21582,19.84772c-16.1665,13.49457-24.73047,32.3252-24.7666,54.45447v0.07281l5.02441,70.87988
					l0.00488,0.13519c0,14.96631,3.76318,35.66266,9.82031,54.01221l2.26855,6.87213l1.80469-8.04205
					c0.65381-2.86908,1.17041-5.13568,1.17041-9.37592v-19.48438c0-33.16998,27.08301-55.45605,67.39215-55.45605h1.02917
					c40.30859,0,67.39172,22.28607,67.39172,55.45605v19.68457C288.90631,378.7832,289.48627,381.4502,290.28998,385.14258z"/>
			</g>
		</g>
		<g>
			<g>
				<path fill="#323A3C" d="M310.98999,262.58862l0.01019-0.14453L311,262.29907
					c-0.03741-22.74066-8.84991-42.10065-25.48492-55.98706C269.82391,193.21362,247.9837,186,224.01758,186h-6.03516
					c-23.96613,0-45.80634,7.21362-61.49756,20.31201c-16.63495,13.88641-25.44745,33.2464-25.48486,55.98706l-0.00018,0.14502
					l0.01019,0.14453l5.0191,70.80365c-0.00012,15.16174,3.8017,36.09833,9.92151,54.63733l4.53735,13.74536l3.16425-14.12488
					l0.22113-0.97601c0.65466-2.87299,1.22003-5.35419,1.22003-9.81732V357.3717c0-31.97363,26.27899-53.45581,65.39203-53.45581
					h1.02917c39.11304,0,65.39203,21.48218,65.39203,53.45581v19.68506c0,1.94073,0.59967,4.69635,1.42938,8.51019
					c0.22162,1.01855,0.45837,2.10693,0.70007,3.2561l3.01294,14.32794l4.69061-13.86951
					c4.43958-13.12726,9.23138-38.22882,9.23138-55.89142v0.00055L310.98999,262.58862z M301.9809,333.10938l-0.00989,0.14014
					v0.14056c0,16.83801-4.49902,41.24042-9.02051,54.60992c-1.0694-5.08539-2.04388-8.98669-2.04388-10.94324V357.3717
					c0-34.36621-27.88654-57.45581-69.39203-57.45581h-1.02917c-41.50549,0-69.39203,23.0896-69.39203,57.45581v19.48505
					c0,4.46613-0.58862,6.54535-1.34436,9.91895c-5.61224-17.00122-9.72003-37.65912-9.72003-53.38562v-0.14056l-0.00983-0.14014
					L135,262.30573c0.0354-21.52032,8.34924-39.81799,24.04828-52.92291C174.02148,196.88361,194.95148,190,217.98242,190h6.03516
					c23.03094,0,43.96094,6.88361,58.9342,19.38281C298.65082,222.48773,306.9646,240.7854,307,262.30573L301.9809,333.10938z"/>
			</g>
		</g>
	</g>
</g>
<g id="shape_16_">
	<g>
		<path fill-rule="evenodd" clip-rule="evenodd" fill="#323A3C" d="M220.48022,300.46527h1.03955
			c0.50531,0,0.9989,0.01941,1.50024,0.02625v-0.95154h10.53107c2.55103,0,4.13544-2.01886,3.57611-4.35455l-0.24072-1.005
			c-0.50629-2.11493-2.69226-3.73035-4.91156-3.73035H210.8783c-2.21918,0-4.40521,1.61542-4.91162,3.73035l-0.24066,1.005
			c-0.55933,2.33569,1.02521,4.35455,3.57611,4.35455h9.67786v0.95154C219.48132,300.48468,219.97491,300.46527,220.48022,300.46527
			z"/>
		<path fill-rule="evenodd" clip-rule="evenodd" fill="#323A3C" d="M307.85999,262.47913
			c-0.03577-21.7356-8.4328-40.21625-24.28882-53.45221c-15.12299-12.62421-36.26215-19.5766-59.52344-19.5766h-6.09552
			c-23.26123,0-44.40039,6.95239-59.5235,19.5766c-15.85596,13.23596-24.25287,31.71661-24.2887,53.45221l1.02271,14.42657
			c4.59302-1.70538,9.29669-3.30249,14.14532-4.73639l0.84039,3.36279c0.54535,2.18182,3.39081,3.80811,6.37268,3.70068
			l40.49451-1.45636c2.98187-0.10724,5.70355-1.93365,6.09137-4.14905l1.92529-10.99957
			c5.09473-0.29443,10.24829-0.45758,15.46271-0.45758c31.50958,0,61.01178,5.495,86.31909,15.0636L307.85999,262.47913z"/>
	</g>
</g>
<g id="wheel">
	<g id="wheel_3_">
		<g>
			<g>
				<path fill="#323A3C" d="M177.4223,291.88318c12.77289-0.2627,23.16217-6.69159,23.2052-14.3595
					c0.04187-7.50519-9.8465-13.41595-22.2439-13.41595c-0.26819,0-0.53558,0.00269-0.80609,0.0083
					c-12.77301,0.2627-23.16217,6.69159-23.20526,14.35925c-0.04187,7.50543,9.84656,13.4162,22.24384,13.4162
					C176.8844,291.89148,177.15179,291.88879,177.4223,291.88318z M159.37213,278.50348
					c0.02399-4.2547,7.85864-9.17358,18.30878-9.38855c0.2359-0.00494,0.46881-0.0072,0.7027-0.0072
					c6.54327,0,12.50488,1.90747,15.55847,4.97815c1.12469,1.13092,1.69183,2.2782,1.68555,3.40985
					c-0.02393,4.25458-7.85852,9.17358-18.30884,9.38855c-0.2359,0.00494-0.46881,0.0072-0.7027,0.0072
					c-6.54327,0-12.50488-1.90747-15.55841-4.97815C159.93292,280.78241,159.36591,279.63507,159.37213,278.50348z"/>
			</g>
		</g>
	</g>
</g>
<g id="wheel_1_">
	<g>
		<path fill-rule="evenodd" clip-rule="evenodd" fill="#323A3C" d="M185.83679,277.77667
			c-0.16309-2.81696-4.02802-4.77686-8.6322-4.37775c-4.60437,0.39929-8.20459,3.00665-8.0415,5.82379
			c0.14429,2.49316,3.19031,4.31177,7.08051,4.42065c0.93109,2.59705,1.09503,5.29474-0.24359,6.35645
			c-1.8125,1.43726,10.25-1.25024,9-2c-0.87323-0.52399-2.505-3.1814-3.04962-5.46124
			C184.37347,281.43927,185.94568,279.65668,185.83679,277.77667z"/>
	</g>
</g>
<g id="shape_17_">
	<g id="shape_38_">
		<g>
			<g>
				<path fill-rule="evenodd" clip-rule="evenodd" fill="#323A3C" d="M107.3999,140.54053l0.34619,1.12256l1.14941,0.24414
					c0.29053,0.06146,0.625,0.09277,0.99512,0.09277c0.45752,0,0.97272-0.04791,1.5293-0.14111
					c6.59821-1.10498,31.15186-11.93457,35.50342-14.96826l0.53076-0.37012l0.21338-0.61133
					c1.48438-4.25,2.32959-22.63721,2.27686-27.78705l-0.00439-0.39941l-0.15674-0.36719
					c-0.96436-2.25305-5.59912-6.05475-7.88916-7.15735l-0.94043-0.45306l-0.90918,0.5127
					c-3.06543,1.7276-11.26514,8.90631-16.63824,15.78857c-6.16345,7.896-14.7724,25.24463-15.71185,29.2373
					C107.14404,137.62213,107.04492,139.39063,107.3999,140.54053z"/>
				<path fill-rule="evenodd" clip-rule="evenodd" fill="#323A3C" d="M295.07709,126.89063
					c4.35162,3.03369,28.9043,13.86328,35.50104,14.96777c0.55859,0.09369,1.07416,0.1416,1.53125,0.1416
					c0.36914,0,0.70313-0.03131,0.99414-0.09277l1.1524-0.24359l0.3457-1.12555c0.35345-1.15088,0.25385-2.91901-0.2959-5.25391
					c-0.93854-3.99066-9.54596-21.33887-15.71191-29.23779c-5.37311-6.88177-13.57233-14.06061-16.6377-15.78857l-0.91022-0.5127
					l-0.94043,0.45306c-2.28906,1.1026-6.92389,4.9043-7.88867,7.15735l-0.15723,0.36719l-0.00385,0.39941
					c-0.05286,5.14984,0.79285,23.53705,2.27728,27.78705l0.21289,0.61133L295.07709,126.89063z"/>
			</g>
		</g>
		<g>
			<g>
				<path fill="#323A3C" d="M105.48804,141.12793l0.68958,2.23865l2.28992,0.49402c0.42889,0.09253,0.90778,0.1394,1.42297,0.1394
					c0.56512,0,1.19073-0.0567,1.85944-0.16852c6.97369-1.16785,31.74957-12.11639,36.31683-15.30005l1.06226-0.74042
					l0.42676-1.22241c1.73657-4.97351,2.42957-24.45569,2.38818-28.46698l-0.00824-0.7981l-0.31384-0.73395
					c-1.28491-3.0036-6.53998-7.05597-8.85925-8.17316l-1.88098-0.90613l-1.81891,1.02509
					c-3.28192,1.84961-11.62683,9.1192-17.23285,16.3006c-6.07275,7.77911-14.9809,25.32794-16.0824,30.00964
					C105.10632,137.55103,105.02142,139.61249,105.48804,141.12793z M109.6413,135.7417
					c0.8844-3.7594,9.4397-20.90411,15.34161-28.46429c5.26721-6.74738,13.23163-13.6925,16.0437-15.2774
					c2.08868,1.0061,6.21265,4.49493,6.91766,6.14288c0.05573,5.40863-0.82111,23.25873-2.16486,27.10712
					c-4.03455,2.81238-28.1983,13.54932-34.68939,14.63623C110.6394,139.96161,110.2359,140,109.8905,140
					c-0.28601,0-0.47119-0.02612-0.57959-0.0495C109.20514,139.60712,109,138.46692,109.6413,135.7417z"/>
				<path fill="#323A3C" d="M293.93317,128.53143c4.56732,3.18365,29.3432,14.1322,36.31622,15.29999
					C330.9187,143.9433,331.54437,144,332.1095,144c0.51532,0,0.99408-0.04688,1.42297-0.1394l2.28992-0.49402l0.68964-2.23865
					c0.46655-1.51544,0.38177-3.5769-0.25964-6.30243c-1.10138-4.68158-10.00946-22.23041-16.08228-30.00952
					c-5.60602-7.1814-13.95081-14.45099-17.23279-16.3006l-1.81891-1.02509l-1.88104,0.90613
					c-2.31927,1.11719-7.57434,5.16956-8.85925,8.17316l-0.31384,0.73395l-0.00824,0.7981
					c-0.04144,4.01129,0.65155,23.49347,2.38818,28.46698l0.42676,1.22241L293.93317,128.53143z M294.05579,98.14288
					c0.70502-1.64795,4.82904-5.13678,6.9176-6.14288c2.81213,1.5849,10.77649,8.53003,16.0437,15.2774
					c5.90192,7.56018,14.45709,24.7049,15.34161,28.46429c0.6413,2.72522,0.43622,3.86542,0.33038,4.2088
					c-0.1084,0.02338-0.29358,0.0495-0.57959,0.0495c-0.3454,0-0.7489-0.03839-1.19952-0.11377
					c-6.49109-1.08691-30.65491-11.82385-34.68939-14.63623C294.87689,121.40161,294,103.55151,294.05579,98.14288z"/>
			</g>
		</g>
	</g>
</g>
<g id="shape_18_">
	<g>
		<path fill-rule="evenodd" clip-rule="evenodd" fill="#A0C5CF" d="M124.98291,107.2774
			c-5.90179,7.56018-14.45721,24.70477-15.34167,28.46429c-0.64124,2.72522-0.4361,3.86548-0.33032,4.20892
			c0.10828,0.02319,0.2937,0.04938,0.57959,0.04938c0.34534,0,0.7489-0.03827,1.19952-0.11377
			c0.64917-0.1087,1.48157-0.3175,2.44647-0.60181l27.94385-47.04431c-0.159-0.09003-0.31177-0.17169-0.45374-0.24011
			C138.21454,93.58478,130.25012,100.53003,124.98291,107.2774z"/>
		<path fill-rule="evenodd" clip-rule="evenodd" fill="#A0C5CF" d="M127.10974,123.99963l-1.42102,10.76599
			c7.77911-3.22644,16.08331-7.10083,19.28668-9.00763l-0.23212-1.75836c-0.21179-1.60461-2.15454-2.84985-4.34827-2.84985h-8.93701
			C129.26434,121.14978,127.32153,122.39502,127.10974,123.99963z"/>
	</g>
</g>
<g id="shape_19_">
	<g>
		<path fill-rule="evenodd" clip-rule="evenodd" fill="#A0C5CF" d="M297.62109,123.841l-0.28027,2.10272
			c3.49365,2.01306,11.836,5.88336,19.52527,9.052l-1.4873-11.15472c-0.21332-1.59967-2.16968-2.84119-4.37878-2.84119h-9
			C299.79077,120.99982,297.83441,122.24133,297.62109,123.841z"/>
		<path fill-rule="evenodd" clip-rule="evenodd" fill="#A0C5CF" d="M330.90997,139.88623
			C331.3606,139.96173,331.76422,140,332.1095,140c0.28589,0,0.47119-0.02618,0.57959-0.04938
			c0.10583-0.34344,0.31091-1.4837-0.33026-4.20892c-0.88464-3.75952-9.43994-20.90411-15.34174-28.46429
			c-5.26727-6.74738-13.23157-13.69263-16.04382-15.2774c-0.04144,0.02002-0.08868,0.04712-0.13177,0.06897l28.47302,47.45496
			C329.9201,139.68549,330.461,139.81097,330.90997,139.88623z"/>
	</g>
</g>
<g>
	<path fill="#323A3C" d="M189.77393,567.30371c0.09717,0.36328,0.18945,0.69531,0.29639,0.96484
		c0.55811,1.4082,3.95313,10.96973,3.9873,11.06641L194.29395,580h52.41016l0.2373-0.66309
		c0.03418-0.0957,3.42871-9.57031,3.9873-10.96582c0.10742-0.26758,0.19922-0.59766,0.29688-0.95801
		c0.43066-1.59375,0.7959-2.97168,3.58398-2.43164c4.42871,0.85742,40.99902,8,40.99902,8l0.38281-1.96289
		c0,0-36.57227-7.14258-41.00098-8c-4.60938-0.88867-5.47656,2.32617-5.89551,3.87207
		c-0.0752,0.27734-0.14063,0.53223-0.22363,0.73828c-0.48926,1.22461-2.98242,8.16211-3.77539,10.37109h-49.58984
		c-0.7915-2.22559-3.28662-9.23242-3.77637-10.46777c-0.08252-0.20898-0.14893-0.4668-0.22412-0.74707
		c-0.41797-1.55859-1.28662-4.80176-5.89746-3.90234c-4.42871,0.86523-41.00146,8.07227-41.00146,8.07227l0.38672,1.96289
		c0,0,36.56982-7.20703,40.99805-8.07227C188.96924,564.30566,189.34229,565.69336,189.77393,567.30371z"/>
</g>
<g id="shape_21_">
	<g>
		<path fill-rule="evenodd" clip-rule="evenodd" fill="#323A3C" d="M158.16895,191.62921
			c-0.46698-22.11853-0.85657-66.6283-0.85657-66.6283l-2.23035-3.0011c0,0-0.08203,67.0658,1.11511,86.0329
			c0.84808,13.4353,1.90009,11.33551,2.23871,4c0.31793-0.50378,0.56415-1.0329,0.56415-1.0329s-0.25-15.49994,1-19
			c1.25-3.5,12-16,12-16S160.01257,188.06531,158.16895,191.62921z"/>
		<polygon fill-rule="evenodd" clip-rule="evenodd" fill="#323A3C" points="110,297.99988 137,423.99988 140,420.99988 
			106,274.99988 		"/>
		<path fill-rule="evenodd" clip-rule="evenodd" fill="#323A3C" d="M117,267.99988c-2.37811,0-16-30-16-30s11.58374,32,16,32
			c4.41614,0,19,0,19,0l-2-2C134,267.99988,119.37793,267.99988,117,267.99988z"/>
		<path fill-rule="evenodd" clip-rule="evenodd" fill="#323A3C" d="M172,518.99988l-5-20c-2.71442,11.85718-3,35-3,35L172,518.99988
			z"/>
		<polygon fill-rule="evenodd" clip-rule="evenodd" fill="#323A3C" points="305,423.99988 332,297.99988 336,274.99988 
			302,420.99988 		"/>
		<path fill-rule="evenodd" clip-rule="evenodd" fill="#323A3C" d="M282.94781,210.74481
			c0.21417,7.32062,1.0202,10.59796,1.75757,1.60187c0.12878-0.27356,0.21173-0.7785,0.21173-1.64349
			c0-0.38721,0.00061-0.85016,0.0011-1.34387c0.0274-0.43854,0.05481-0.8822,0.08179-1.3595c1.07349-18.95984,1-86,1-86l-2,3
			c0,0-0.33972,43.26599-0.75073,65.66876C280.3598,186.39648,270,175.99982,270,175.99982s10.69061,12.3941,11.93359,15.8645
			c0.68628,1.91589,0.91748,7.45599,0.98743,12.03656c-0.04193,2.2641-0.03375,4.41174,0.01337,6.31604
			c-0.00348,0.30811-0.00629,0.48627-0.00629,0.48627S282.9364,210.72089,282.94781,210.74481z"/>
		<path fill-rule="evenodd" clip-rule="evenodd" fill="#323A3C" d="M341,237.99988c0,0-13.62213,30-16,30c-2.37811,0-17,0-17,0l-2,2
			c0,0,14.58368,0,19,0C329.41608,269.99988,341,237.99988,341,237.99988z"/>
		<path fill-rule="evenodd" clip-rule="evenodd" fill="#323A3C" d="M278,533.99988c0,0-0.28583-23.14282-3-35l-5,20L278,533.99988z"
			/>
	</g>
</g>
<g id="shape_22_">
	<g>
		<path fill-rule="evenodd" clip-rule="evenodd" fill="#323A3C" d="M93,280.99988c6.15063,0,23.33289,3,27,3
			c3.66699,0,2.63574-9-1-9c-3.63586,0-26,0-26,0S86.84924,280.99988,93,280.99988z"/>
	</g>
</g>
<g id="shape_23_">
	<g id="shape_32_">
		<g>
			<g>
				<path fill-rule="evenodd" clip-rule="evenodd" fill="#F8C403" d="M93,273.5c-5.38916,0-18.22797,14.44092-19.42291,18.02588
					c-0.65326,1.95905-1.97308,7.56494-0.26019,9.94189c0.52203,0.72412,1.28711,1.12354,2.1543,1.12354c0,0,0,0,0.00055,0
					c0.31927,0,0.65179-0.05524,0.98865-0.16364c0.22473-0.07269,23.00641-7.77338,24.60065-9.36719
					c1.6084-1.60931,0.80768-9.42279-0.9682-13.70941C98.08893,274.51508,95.12994,273.5,93,273.5z"/>
			</g>
		</g>
		<g>
			<g>
				<path fill="#323A3C" d="M93,271.99988c-1.0462,0-4.2298,0-12.29456,8.05322c-0.74963,0.74841-7.35742,7.41571-8.55151,10.99817
					c-0.10583,0.31732-2.56232,7.81342-0.05402,11.29364c0.79993,1.1098,2.02881,1.74622,3.37152,1.74622
					c0.47589,0,0.96338-0.07941,1.4491-0.2359c1.5827-0.51031,7.48651-2.55664,12.77881-4.47815
					c11.25116-4.08508,11.84637-4.6803,12.42188-5.2558c2.4668-2.4671,0.96539-11.46216-0.64227-15.3432
					C99.03583,272.88049,95.11792,271.99988,93,271.99988z M100,291.99988c-1.08258,1.08252-21.11621,8.07025-24,9
					c-0.19189,0.06195-0.36761,0.09125-0.52856,0.09125c-2.25903,0-1.57001-5.79572-0.47144-9.09125
					c1.17682-3.53046,13.69031-17,18-17C100.45282,274.99988,101.08252,290.91718,100,291.99988z"/>
			</g>
		</g>
	</g>
</g>
<g id="shape_24_">
	<g>
		<path fill-rule="evenodd" clip-rule="evenodd" fill="#BC7500" d="M75,291.99988c-0.0578,0.1734-0.11328,0.35864-0.16846,0.54474
			c5.8562-5.77783,17.09387-12.30414,18.16846-11.54474c1.03693,0.73285,2.84204,6.112,3.11792,12.76404
			c2.11707-0.83679,3.60809-1.48999,3.88208-1.76404c1.08252-1.0827,0.45294-17-7-17
			C88.69031,274.99988,76.17682,288.46942,75,291.99988z"/>
	</g>
</g>
<g id="shape_25_">
	<g>
		<path fill-rule="evenodd" clip-rule="evenodd" fill="#323A3C" d="M348.69519,281.00421c6.15643,0,0-6.02692,0-6.02692
			s-22.38477,0-26.02386,0c-3.63922,0-4.67133,9.04041-1.00092,9.04041S342.53882,281.00421,348.69519,281.00421z"/>
	</g>
</g>
<g id="shape_26_">
	<g id="shape_29_">
		<g>
			<g>
				<path fill-rule="evenodd" clip-rule="evenodd" fill="#F8C403" d="M366.24017,302.68549
					c0.86621,0,1.63092-0.39838,2.15344-1.12146c1.71765-2.38043,0.39636-8.01373-0.25793-9.98291
					c-1.19617-3.60059-14.0459-18.10364-19.44037-18.10364c-2.125,0-5.0791,1.01324-7.08405,5.84039
					c-1.9043,4.58252-2.45599,12.31744-0.98529,13.79492c1.59863,1.60303,24.39844,9.33539,24.62305,9.4082
					C365.58588,302.62988,365.91992,302.68549,366.24017,302.68549z"/>
			</g>
		</g>
		<g>
			<g>
				<path fill="#323A3C" d="M364.78741,303.9483c0.48657,0.15759,0.9754,0.23743,1.45258,0.23743
					c1.34143,0,2.56958-0.6358,3.36951-1.74451c2.51422-3.4845,0.05511-11.01453-0.05078-11.33331
					c-1.19391-3.5946-7.80585-10.28979-8.55585-11.04132c-8.07208-8.08929-11.26007-8.08929-12.30768-8.08929
					c-2.11401,0-6.02551,0.87921-8.47052,6.76721c-1.61938,3.8996-3.13696,12.94202-0.66095,15.4267
					c0.57574,0.57788,1.17126,1.17548,12.43298,5.27899C357.2959,301.38098,363.20459,303.43628,364.78741,303.9483z
					 M348.69519,274.97729c4.3136,0,16.83862,13.53003,18.01648,17.07629c1.09973,3.31049,1.78973,9.13214-0.4718,9.13214
					c-0.16095,0-0.33716-0.0296-0.52905-0.09174c-2.88641-0.93378-22.93842-7.95288-24.02209-9.04041
					C340.6051,290.96619,341.23541,274.97729,348.69519,274.97729z"/>
			</g>
		</g>
	</g>
</g>
<g id="shape_27_">
	<g>
		<path fill-rule="evenodd" clip-rule="evenodd" fill="#BC7500" d="M348.69519,281.00421
			c1.0755-0.7627,12.32349,5.79279,18.18512,11.5965c-0.05524-0.18683-0.11084-0.37292-0.16864-0.54712
			c-1.17786-3.54626-13.70288-17.07629-18.01648-17.07629c-7.45978,0-8.09009,15.98889-7.00647,17.07629
			c0.27429,0.27533,1.7666,0.9314,3.88568,1.77203C345.85052,287.14368,347.65729,281.74042,348.69519,281.00421z"/>
	</g>
</g>
<g>
	<path fill-rule="evenodd" clip-rule="evenodd" fill="#323A3C" d="M295.61609,406.70099l-2.83398-7.48712l-0.75,2.11371v1.77271
		c0,0,3.30676,6.34088,5.86371,10.94318C300.45258,418.64581,295.61609,406.70099,295.61609,406.70099z"/>
</g>
<g>
	<path fill-rule="evenodd" clip-rule="evenodd" fill="#323A3C" d="M150.53125,397.90631L146,410.625
		c0,0,2.9375-5.1875,4.82813-9.65619c1.89063-4.46881,2.82813-13.80402,2.82813-13.80402L150.53125,397.90631z"/>
</g>
</svg>
